<?xml version="1.0" encoding="utf-8"?>
<!-- Generator: Adobe Illustrator 16.0.0, SVG Export Plug-In . SVG Version: 6.00 Build 0)  -->
<!DOCTYPE svg PUBLIC "-//W3C//DTD SVG 1.1//EN" "http://www.w3.org/Graphics/SVG/1.1/DTD/svg11.dtd">
<svg version="1.1" id="Layer_1" xmlns="http://www.w3.org/2000/svg" xmlns:xlink="http://www.w3.org/1999/xlink" x="0px" y="0px"
	 width="829.749px" height="187.717px" viewBox="0 0 829.749 187.717" enable-background="new 0 0 829.749 187.717"
	 xml:space="preserve">
<text transform="matrix(1 0 0 1 165.707 133.7949)"><tspan x="0" y="0" fill="#D8B2D4" font-family="'Apercu-Bold'" font-size="114" letter-spacing="-7">b</tspan><tspan x="60.99" y="0" fill="#D8B2D4" font-family="'Apercu-Bold'" font-size="114" letter-spacing="-4">l</tspan><tspan x="87.78" y="0" fill="#D8B2D4" font-family="'Apercu-Bold'" font-size="114" letter-spacing="-5">a</tspan><tspan x="140.903" y="0" fill="#D8B2D4" font-family="'Apercu-Bold'" font-size="114" letter-spacing="-4">c</tspan><tspan x="199.042" y="0" fill="#D8B2D4" font-family="'Apercu-Bold'" font-size="114">k </tspan><tspan x="288.529" y="0" fill="#D8B2D4" font-family="'Apercu-Bold'" font-size="114" letter-spacing="-4">c</tspan><tspan x="346.783" y="0" fill="#D8B2D4" font-family="'Apercu-Bold'" font-size="114">u</tspan><tspan x="413.699" y="0" fill="#D8B2D4" font-family="'Apercu-Bold'" font-size="114" letter-spacing="-2">r</tspan><tspan x="459.527" y="0" fill="#D8B2D4" font-family="'Apercu-Bold'" font-size="114" letter-spacing="-4">r</tspan><tspan x="503.303" y="0" fill="#D8B2D4" font-family="'Apercu-Bold'" font-size="114" letter-spacing="-8">a</tspan><tspan x="553.12" y="0" fill="#D8B2D4" font-family="'Apercu-Bold'" font-size="114" letter-spacing="-2">n</tspan><tspan x="617.757" y="0" fill="#D8B2D4" font-family="'Apercu-Bold'" font-size="114">t</tspan></text>
<g>
	<g>
		<g>
			<defs>
				<polygon id="SVGID_1_" points="163,140.787 81.5,187.717 0,140.787 0,46.929 81.5,0 163,46.929 				"/>
			</defs>
			<clipPath id="SVGID_2_">
				<use xlink:href="#SVGID_1_"  overflow="visible"/>
			</clipPath>
			<g clip-path="url(#SVGID_2_)">
				<path fill="#D8B2D4" d="M81.124,93.858C92.41,56.677,71.191,17.794,34.009,6.507l2.038-1.261
					C72.993,17.277,93.154,56.912,81.124,93.858"/>
				<path fill="#D8B2D4" d="M81.124,93.858c8.003-38.024-16.522-74.91-54.549-82.912l1.918-1.434
					C66.352,18.278,89.889,56.003,81.124,93.858"/>
				<path fill="#D8B2D4" d="M81.124,93.858c4.658-38.577-22.989-73.185-61.565-77.844l1.784-1.594
					C59.818,19.853,86.557,55.383,81.124,93.858"/>
				<path fill="#D8B2D4" d="M81.124,93.858c1.278-38.835-29.278-70.902-68.118-72.181l1.641-1.744
					C53.449,21.991,83.184,55.056,81.124,93.858"/>
				<path fill="#D8B2D4" d="M81.124,93.858c-2.11-38.799-35.349-68.081-74.149-65.97l1.481-1.88
					C47.292,24.676,79.793,55.024,81.124,93.858"/>
				<path fill="#D8B2D4" d="M81.124,93.858C75.641,55.391,39.979,29.117,1.508,34.603L2.818,32.6
					C41.391,27.889,76.415,55.289,81.124,93.858"/>
				<path fill="#D8B2D4" d="M81.124,93.858C72.309,56.016,34.491,32.95-3.354,41.767l1.131-2.109
					C35.792,31.603,73.068,55.845,81.124,93.858"/>
				<path fill="#D8B2D4" d="M81.124,93.858C69.043,56.927,29.359,37.246-7.572,49.328l0.944-2.2
					C30.54,35.79,69.787,56.693,81.124,93.858"/>
				<path fill="#D8B2D4" d="M81.124,93.858c-15.253-35.737-56.501-51.886-92.239-36.63l0.746-2.274
					C25.672,40.42,66.593,57.821,81.124,93.858"/>
				<path fill="#D8B2D4" d="M81.124,93.858c-18.312-34.272-60.808-46.764-95.08-28.452l0.546-2.331
					C21.227,45.457,63.506,59.225,81.124,93.858"/>
				<path fill="#D8B2D4" d="M81.124,93.858c-21.228-32.545-64.651-41.286-97.2-20.057l0.344-2.369
					C17.232,50.862,60.557,60.893,81.124,93.858"/>
				<path fill="#D8B2D4" d="M81.124,93.858C57.141,63.287,13.119,58.364-17.452,82.349l0.134-2.39
					C13.73,56.593,57.759,62.811,81.124,93.858"/>
				<path fill="#D8B2D4" d="M81.124,93.858c-26.558-28.366-70.839-29.432-99.205-2.873l-0.075-2.394
					C10.736,62.609,55.143,64.966,81.124,93.858"/>
				<path fill="#D8B2D4" d="M81.124,93.858C52.197,67.916,7.988,70.713-17.954,99.642l-0.284-2.375
					C8.283,68.862,52.723,67.34,81.124,93.858"/>
				<path fill="#D8B2D4" d="M81.124,93.858C50.047,70.536,6.25,77.174-17.073,108.254l-0.489-2.342
					C6.382,75.306,50.521,69.917,81.124,93.858"/>
				<path fill="#D8B2D4" d="M81.124,93.858C48.131,73.333,5.08,83.764-15.445,116.76l-0.689-2.293
					C5.048,81.891,48.549,72.675,81.124,93.858"/>
				<path fill="#D8B2D4" d="M81.124,93.858C46.469,76.286,4.49,90.43-13.081,125.088l-0.888-2.222
					C4.294,88.567,46.829,75.594,81.124,93.858"/>
				<path fill="#D8B2D4" d="M81.124,93.858c-36.056-14.484-76.64,3.265-91.126,39.323l-1.077-2.139
					C4.125,95.283,45.365,78.652,81.124,93.858"/>
				<path fill="#D8B2D4" d="M81.124,93.858c-37.183-11.287-76.063,9.931-87.353,47.116l-1.26-2.035
					C4.544,101.987,44.178,81.828,81.124,93.858"/>
				<path fill="#D8B2D4" d="M81.124,93.858C43.102,85.855,6.215,110.38-1.789,148.406l-1.434-1.917
					C5.543,108.633,43.27,85.093,81.124,93.858"/>
				<path fill="#D8B2D4" d="M81.124,93.858C42.549,89.2,7.939,116.849,3.279,155.425l-1.592-1.785
					C7.118,115.162,42.65,88.426,81.124,93.858"/>
				<path fill="#D8B2D4" d="M81.124,93.858c-38.835-1.279-70.903,29.28-72.183,68.116l-1.742-1.639
					C9.256,121.531,42.322,91.8,81.124,93.858"/>
				<path fill="#D8B2D4" d="M81.124,93.858c-38.799,2.11-68.081,35.347-65.968,74.149l-1.883-1.482
					C11.941,127.69,42.289,95.188,81.124,93.858"/>
				<path fill="#D8B2D4" d="M81.124,93.858c-38.467,5.483-64.741,41.146-59.256,79.616l-2.002-1.312
					C15.154,133.592,42.555,98.567,81.124,93.858"/>
				<path fill="#D8B2D4" d="M81.124,93.858c-37.843,8.816-60.909,46.633-52.091,84.478l-2.11-1.132
					C18.869,139.188,43.111,101.912,81.124,93.858"/>
				<path fill="#D8B2D4" d="M81.124,93.858c-36.931,12.081-56.61,51.763-44.531,88.696l-2.198-0.943
					C23.057,144.442,43.958,105.194,81.124,93.858"/>
				<path fill="#D8B2D4" d="M81.124,93.858c-35.735,15.252-51.886,56.5-36.63,92.239l-2.273-0.748
					C27.688,149.312,45.087,108.392,81.124,93.858"/>
				<path fill="#D8B2D4" d="M81.124,93.858c-34.271,18.311-46.765,60.808-28.451,95.081l-2.331-0.547
					C32.721,153.758,46.49,111.478,81.124,93.858"/>
				<path fill="#D8B2D4" d="M81.124,93.858c-32.545,21.228-41.287,64.651-20.058,97.198l-2.369-0.342
					C38.125,157.749,48.158,114.429,81.124,93.858"/>
				<path fill="#D8B2D4" d="M81.124,93.858c-30.571,23.983-35.495,68.004-11.509,98.577l-2.389-0.134
					C43.857,161.254,50.077,117.222,81.124,93.858"/>
				<path fill="#D8B2D4" d="M81.124,93.858c-28.364,26.556-29.433,70.838-2.875,99.206l-2.392,0.074
					C49.873,164.245,52.23,119.84,81.124,93.858"/>
				<path fill="#D8B2D4" d="M81.124,93.858c-25.942,28.928-23.146,73.134,5.783,99.079l-2.376,0.281
					C56.128,166.7,54.605,122.259,81.124,93.858"/>
				<path fill="#D8B2D4" d="M81.124,93.858c-23.323,31.077-16.685,74.874,14.396,98.198l-2.34,0.488
					C62.57,168.601,57.184,124.463,81.124,93.858"/>
				<path fill="#D8B2D4" d="M81.124,93.858c-20.524,32.993-10.095,76.042,22.901,96.569l-2.293,0.691
					C69.156,169.935,59.939,126.433,81.124,93.858"/>
				<path fill="#D8B2D4" d="M81.124,93.858c-17.571,34.655-3.429,76.634,31.229,94.206l-2.223,0.888
					C75.833,170.688,62.859,128.153,81.124,93.858"/>
				<path fill="#D8B2D4" d="M81.124,93.858c-14.483,36.056,3.265,76.641,39.321,91.125l-2.137,1.078
					C82.549,170.854,65.918,129.616,81.124,93.858"/>
				<path fill="#D8B2D4" d="M81.124,93.858c-11.287,37.181,9.931,76.065,47.112,87.352l-2.032,1.262
					C89.254,170.438,69.092,130.806,81.124,93.858"/>
				<path fill="#D8B2D4" d="M81.124,93.858c-8.004,38.023,16.522,74.909,54.548,82.913l-1.917,1.434
					C95.896,169.438,72.357,131.713,81.124,93.858"/>
				<path fill="#D8B2D4" d="M81.124,93.858c-4.66,38.575,22.989,73.185,61.565,77.843l-1.785,1.596
					C102.43,167.865,75.691,132.334,81.124,93.858"/>
				<path fill="#D8B2D4" d="M81.124,93.858c-1.278,38.834,29.278,70.902,68.116,72.181l-1.641,1.744
					C108.798,165.726,79.064,132.662,81.124,93.858"/>
				<path fill="#D8B2D4" d="M81.124,93.858c2.11,38.798,35.349,68.081,74.149,65.97l-1.482,1.881
					C114.956,163.041,82.455,132.692,81.124,93.858"/>
				<path fill="#D8B2D4" d="M81.124,93.858c5.483,38.468,41.146,64.741,79.614,59.254l-1.311,2.005
					C120.857,159.828,85.834,132.428,81.124,93.858"/>
				<path fill="#D8B2D4" d="M81.124,93.858c8.817,37.843,46.633,60.909,84.479,52.092l-1.133,2.107
					C126.456,156.114,89.178,131.871,81.124,93.858"/>
				<path fill="#D8B2D4" d="M81.124,93.858c12.08,36.931,51.763,56.612,88.696,44.53l-0.943,2.199
					C131.708,151.928,92.461,131.024,81.124,93.858"/>
				<path fill="#D8B2D4" d="M81.124,93.858c15.253,35.737,56.501,51.886,92.239,36.631l-0.748,2.273
					C136.578,147.297,95.656,129.896,81.124,93.858"/>
				<path fill="#D8B2D4" d="M81.124,93.858c18.31,34.272,60.808,46.765,95.081,28.452l-0.547,2.33
					C141.023,142.263,98.742,128.49,81.124,93.858"/>
				<path fill="#D8B2D4" d="M81.124,93.858c21.228,32.545,64.651,41.286,97.2,20.058l-0.344,2.367
					C145.016,136.854,101.693,126.824,81.124,93.858"/>
				<path fill="#D8B2D4" d="M81.124,93.858c23.981,30.573,68.005,35.495,98.577,11.509l-0.135,2.39
					C148.52,131.124,104.486,124.906,81.124,93.858"/>
				<path fill="#D8B2D4" d="M81.124,93.858c26.558,28.364,70.839,29.433,99.206,2.875l0.074,2.391
					C151.512,125.106,107.105,122.752,81.124,93.858"/>
				<path fill="#D8B2D4" d="M81.124,93.858c28.928,25.943,73.135,23.146,99.078-5.782l0.282,2.376
					C153.965,118.854,109.525,120.377,81.124,93.858"/>
				<path fill="#D8B2D4" d="M81.124,93.858c31.079,23.323,74.873,16.685,98.198-14.396l0.488,2.342
					C155.867,112.411,111.729,117.801,81.124,93.858"/>
				<path fill="#D8B2D4" d="M81.124,93.858c32.993,20.526,76.042,10.095,96.569-22.899l0.689,2.29
					C157.201,105.826,113.698,115.041,81.124,93.858"/>
				<path fill="#D8B2D4" d="M81.124,93.858c34.655,17.573,76.634,3.429,94.208-31.229l0.885,2.222
					C157.955,99.149,115.422,112.123,81.124,93.858"/>
				<path fill="#D8B2D4" d="M81.124,93.858c36.058,14.485,76.642-3.263,91.127-39.32l1.076,2.135
					C158.123,92.433,116.881,109.063,81.124,93.858"/>
				<path fill="#D8B2D4" d="M81.124,93.858c37.181,11.288,76.065-9.93,87.353-47.114l1.262,2.034
					C157.706,85.728,118.07,105.89,81.124,93.858"/>
				<path fill="#D8B2D4" d="M81.124,93.858c38.024,8.004,74.909-16.522,82.914-54.547l1.431,1.917
					C156.705,79.083,118.979,102.623,81.124,93.858"/>
				<path fill="#D8B2D4" d="M81.124,93.858c38.577,4.659,73.185-22.989,77.844-61.566l1.595,1.784
					C155.131,72.553,119.6,99.291,81.124,93.858"/>
				<path fill="#D8B2D4" d="M81.124,93.858c38.836,1.28,70.903-29.279,72.183-68.117l1.742,1.639
					C152.992,66.183,119.927,95.917,81.124,93.858"/>
				<path fill="#D8B2D4" d="M81.124,93.858c38.801-2.11,68.081-35.347,65.972-74.148l1.879,1.48
					C150.307,60.025,119.957,92.527,81.124,93.858"/>
				<path fill="#D8B2D4" d="M81.124,93.858c38.468-5.483,64.741-41.146,59.257-79.616l2.001,1.311
					C147.096,54.124,119.693,89.148,81.124,93.858"/>
				<path fill="#D8B2D4" d="M81.124,93.858c37.844-8.816,60.909-46.632,52.093-84.478l2.108,1.132
					C143.381,48.526,119.137,85.805,81.124,93.858"/>
				<path fill="#D8B2D4" d="M81.124,93.858c36.931-12.081,56.612-51.762,44.532-88.697l2.197,0.944
					C139.191,43.273,118.29,82.522,81.124,93.858"/>
				<path fill="#D8B2D4" d="M81.124,93.858c35.737-15.254,51.884-56.5,36.632-92.241l2.271,0.749
					C134.562,38.403,117.161,79.325,81.124,93.858"/>
				<path fill="#D8B2D4" d="M81.124,93.858c34.271-18.31,46.765-60.808,28.454-95.082l2.328,0.547
					C129.527,33.958,115.757,76.239,81.124,93.858"/>
				<path fill="#D8B2D4" d="M81.124,93.858c32.546-21.228,41.287-64.652,20.06-97.2L103.551-3
					C124.121,29.966,114.09,73.288,81.124,93.858"/>
				<path fill="#D8B2D4" d="M81.124,93.858c30.573-23.982,35.495-68.004,11.511-98.578l2.389,0.135
					C118.391,26.463,112.171,70.494,81.124,93.858"/>
				<path fill="#D8B2D4" d="M81.124,93.858c28.364-26.556,29.431-70.839,2.875-99.207l2.392-0.074
					C112.373,23.471,110.016,67.876,81.124,93.858"/>
				<path fill="#D8B2D4" d="M81.124,93.858c25.942-28.927,23.147-73.134-5.783-99.08l2.377-0.282
					C106.12,21.016,107.643,65.457,81.124,93.858"/>
				<path fill="#D8B2D4" d="M81.124,93.858C104.447,62.779,97.807,18.984,66.729-4.34l2.342-0.489
					C99.677,19.114,105.064,63.254,81.124,93.858"/>
				<path fill="#D8B2D4" d="M81.124,93.858C101.65,60.864,91.221,17.816,58.225-2.713l2.289-0.689
					C93.092,17.781,102.307,61.285,81.124,93.858"/>
				<path fill="#D8B2D4" d="M81.124,93.858c17.573-34.657,3.429-76.633-31.228-94.207l2.221-0.886
					C86.415,17.028,99.389,59.561,81.124,93.858"/>
				<path fill="#D8B2D4" d="M81.124,93.858c14.483-36.057-3.265-76.64-39.319-91.126l2.135-1.077
					C79.698,16.86,96.33,58.101,81.124,93.858"/>
			</g>
		</g>
		<g>
			<defs>
				<polygon id="SVGID_3_" points="163,140.787 81.5,187.717 0,140.787 0,46.929 81.5,0 163,46.929 				"/>
			</defs>
			<clipPath id="SVGID_4_">
				<use xlink:href="#SVGID_3_"  overflow="visible"/>
			</clipPath>
			<polygon display="none" clip-path="url(#SVGID_4_)" fill="none" points="174,147.19 81.5,200.383 -11,147.19 -11,40.807 
				81.5,-12.384 174,40.807 			"/>
		</g>
	</g>
	<path fill="#D8B2D4" d="M64.87,93.858c0-8.8,7.138-15.937,15.94-15.937c8.799,0,15.934,7.137,15.934,15.937
		c0,8.803-7.135,15.937-15.934,15.937C72.008,109.795,64.87,102.661,64.87,93.858z"/>
</g>
</svg>
