<?xml version="1.0" encoding="utf-8"?>
<!-- Generator: Adobe Illustrator 16.0.0, SVG Export Plug-In . SVG Version: 6.00 Build 0)  -->
<!DOCTYPE svg PUBLIC "-//W3C//DTD SVG 1.1//EN" "http://www.w3.org/Graphics/SVG/1.1/DTD/svg11.dtd">
<svg version="1.1" id="Layer_1" xmlns="http://www.w3.org/2000/svg" xmlns:xlink="http://www.w3.org/1999/xlink" x="0px" y="0px"
	 width="58.381px" height="66.865px" viewBox="52.667 60.199 58.381 66.865" enable-background="new 52.667 60.199 58.381 66.865"
	 xml:space="preserve">
<g>
	<g>
		<g>
			<defs>
				<polygon id="SVGID_2_" points="474.5,167.787 393,214.717 311.5,167.787 311.5,73.929 393,27 474.5,73.929 				"/>
			</defs>
			<clipPath id="SVGID_3_">
				<use xlink:href="#SVGID_2_"  overflow="visible"/>
			</clipPath>
			<g clip-path="url(#SVGID_3_)">
				<path fill="none" stroke="#DFB1E5" stroke-miterlimit="10" d="M393.124,120.858c11.286-37.183-9.933-76.064-47.115-87.353
					l2.038-1.261C384.993,44.277,405.155,83.912,393.124,120.858"/>
				<path fill="none" stroke="#DFB1E5" stroke-miterlimit="10" d="M393.124,120.858c8.003-38.024-16.522-74.91-54.549-82.913
					l1.918-1.434C378.352,45.278,401.889,83.003,393.124,120.858"/>
				<path fill="none" stroke="#DFB1E5" stroke-miterlimit="10" d="M393.124,120.858c4.658-38.577-22.989-73.186-61.565-77.844
					l1.784-1.594C371.818,46.853,398.557,82.383,393.124,120.858"/>
				<path fill="none" stroke="#DFB1E5" stroke-miterlimit="10" d="M393.124,120.858c1.278-38.835-29.278-70.902-68.118-72.182
					l1.641-1.744C365.449,48.991,395.184,82.056,393.124,120.858"/>
				<path fill="none" stroke="#DFB1E5" stroke-miterlimit="10" d="M393.124,120.858c-2.11-38.799-35.349-68.082-74.149-65.97
					l1.481-1.88C359.292,51.676,391.793,82.024,393.124,120.858"/>
				<path fill="none" stroke="#DFB1E5" stroke-miterlimit="10" d="M393.124,120.858c-5.483-38.467-41.146-64.741-79.616-59.255
					l1.312-2.003C353.391,54.889,388.415,82.289,393.124,120.858"/>
				<path fill="none" stroke="#DFB1E5" stroke-miterlimit="10" d="M393.124,120.858c-8.815-37.843-46.633-60.909-84.478-52.091
					l1.131-2.109C347.792,58.603,385.068,82.845,393.124,120.858"/>
				<path fill="none" stroke="#DFB1E5" stroke-miterlimit="10" d="M393.124,120.858c-12.081-36.932-51.765-56.612-88.696-44.531
					l0.944-2.2C342.54,62.79,381.787,83.693,393.124,120.858"/>
				<path fill="none" stroke="#DFB1E5" stroke-miterlimit="10" d="M393.124,120.858c-15.253-35.737-56.501-51.886-92.239-36.63
					l0.746-2.274C337.672,67.42,378.593,84.821,393.124,120.858"/>
				<path fill="none" stroke="#DFB1E5" stroke-miterlimit="10" d="M393.124,120.858c-18.312-34.272-60.808-46.765-95.08-28.452
					l0.546-2.331C333.227,72.457,375.506,86.225,393.124,120.858"/>
				<path fill="none" stroke="#DFB1E5" stroke-miterlimit="10" d="M393.124,120.858c-21.228-32.545-64.651-41.286-97.2-20.059
					l0.344-2.369C329.232,77.862,372.557,87.893,393.124,120.858"/>
				<path fill="none" stroke="#DFB1E5" stroke-miterlimit="10" d="M393.124,120.858c-23.983-30.572-68.005-35.494-98.576-11.51
					l0.134-2.391C325.73,83.593,369.759,89.811,393.124,120.858"/>
				<path fill="none" stroke="#DFB1E5" stroke-miterlimit="10" d="M393.124,120.858c-26.558-28.366-70.839-29.433-99.205-2.873
					l-0.075-2.395C322.736,89.609,367.143,91.966,393.124,120.858"/>
				<path fill="none" stroke="#DFB1E5" stroke-miterlimit="10" d="M393.124,120.858c-28.927-25.942-73.136-23.146-99.078,5.781
					l-0.284-2.375C320.283,95.862,364.723,94.34,393.124,120.858"/>
				<path fill="none" stroke="#DFB1E5" stroke-miterlimit="10" d="M393.124,120.858c-31.077-23.323-74.874-16.686-98.197,14.396
					l-0.489-2.342C318.382,102.308,362.521,96.916,393.124,120.858"/>
				<path fill="none" stroke="#DFB1E5" stroke-miterlimit="10" d="M393.124,120.858c-32.993-20.525-76.044-10.096-96.569,22.9
					l-0.689-2.293C317.048,108.892,360.549,99.676,393.124,120.858"/>
				<path fill="none" stroke="#DFB1E5" stroke-miterlimit="10" d="M393.124,120.858c-34.655-17.572-76.634-3.43-94.205,31.229
					l-0.888-2.222C316.294,115.565,358.829,102.594,393.124,120.858"/>
				<path fill="none" stroke="#DFB1E5" stroke-miterlimit="10" d="M393.124,120.858c-36.056-14.484-76.64,3.265-91.126,39.322
					l-1.077-2.139C316.125,122.283,357.365,105.651,393.124,120.858"/>
				<path fill="none" stroke="#DFB1E5" stroke-miterlimit="10" d="M393.124,120.858c-37.183-11.287-76.063,9.931-87.353,47.113
					l-1.26-2.035C316.544,128.987,356.178,108.828,393.124,120.858"/>
				<path fill="none" stroke="#DFB1E5" stroke-miterlimit="10" d="M393.124,120.858c-38.022-8.004-74.909,16.521-82.913,54.548
					l-1.434-1.917C317.543,135.633,355.27,112.093,393.124,120.858"/>
				<path fill="none" stroke="#DFB1E5" stroke-miterlimit="10" d="M393.124,120.858c-38.575-4.658-73.185,22.988-77.845,61.565
					l-1.592-1.784C319.118,142.162,354.65,115.426,393.124,120.858"/>
				<path fill="none" stroke="#DFB1E5" stroke-miterlimit="10" d="M393.124,120.858c-38.835-1.278-70.903,29.279-72.183,68.115
					l-1.742-1.639C321.256,148.531,354.322,118.8,393.124,120.858"/>
				<path fill="none" stroke="#DFB1E5" stroke-miterlimit="10" d="M393.124,120.858c-38.799,2.109-68.081,35.347-65.968,74.148
					l-1.883-1.482C323.941,154.69,354.289,122.188,393.124,120.858"/>
				<path fill="none" stroke="#DFB1E5" stroke-miterlimit="10" d="M393.124,120.858c-38.467,5.482-64.741,41.146-59.256,79.615
					l-2.002-1.312C327.154,160.592,354.555,125.567,393.124,120.858"/>
				<path fill="none" stroke="#DFB1E5" stroke-miterlimit="10" d="M393.124,120.858c-37.843,8.815-60.909,46.633-52.091,84.478
					l-2.11-1.132C330.869,166.188,355.111,128.912,393.124,120.858"/>
				<path fill="none" stroke="#DFB1E5" stroke-miterlimit="10" d="M393.124,120.858c-36.931,12.08-56.61,51.763-44.531,88.695
					l-2.198-0.943C335.057,171.442,355.958,132.194,393.124,120.858"/>
				<path fill="none" stroke="#DFB1E5" stroke-miterlimit="10" d="M393.124,120.858c-35.735,15.252-51.886,56.5-36.63,92.238
					l-2.273-0.748C339.688,176.312,357.087,135.392,393.124,120.858"/>
				<path fill="none" stroke="#DFB1E5" stroke-miterlimit="10" d="M393.124,120.858c-34.271,18.311-46.765,60.808-28.451,95.08
					l-2.331-0.547C344.721,180.758,358.49,138.478,393.124,120.858"/>
				<path fill="none" stroke="#DFB1E5" stroke-miterlimit="10" d="M393.124,120.858c-32.545,21.228-41.287,64.65-20.058,97.197
					l-2.369-0.342C350.125,184.749,360.158,141.428,393.124,120.858"/>
				<path fill="none" stroke="#DFB1E5" stroke-miterlimit="10" d="M393.124,120.858c-30.571,23.982-35.495,68.004-11.509,98.576
					l-2.389-0.134C355.857,188.254,362.077,144.222,393.124,120.858"/>
				<path fill="none" stroke="#DFB1E5" stroke-miterlimit="10" d="M393.124,120.858c-28.364,26.556-29.433,70.838-2.875,99.205
					l-2.392,0.074C361.873,191.245,364.23,146.84,393.124,120.858"/>
				<path fill="none" stroke="#DFB1E5" stroke-miterlimit="10" d="M393.124,120.858c-25.942,28.928-23.146,73.134,5.783,99.078
					l-2.376,0.281C368.128,193.7,366.605,149.259,393.124,120.858"/>
				<path fill="none" stroke="#DFB1E5" stroke-miterlimit="10" d="M393.124,120.858c-23.323,31.076-16.685,74.873,14.396,98.197
					l-2.34,0.488C374.57,195.601,369.184,151.463,393.124,120.858"/>
				<path fill="none" stroke="#DFB1E5" stroke-miterlimit="10" d="M393.124,120.858c-20.524,32.992-10.095,76.041,22.901,96.568
					l-2.293,0.691C381.156,196.935,371.939,153.433,393.124,120.858"/>
				<path fill="none" stroke="#DFB1E5" stroke-miterlimit="10" d="M393.124,120.858c-17.571,34.654-3.429,76.634,31.229,94.205
					l-2.222,0.888C387.833,197.688,374.859,155.153,393.124,120.858"/>
				<path fill="none" stroke="#DFB1E5" stroke-miterlimit="10" d="M393.124,120.858c-14.483,36.056,3.265,76.641,39.321,91.125
					l-2.138,1.078C394.549,197.854,377.918,156.616,393.124,120.858"/>
				<path fill="none" stroke="#DFB1E5" stroke-miterlimit="10" d="M393.124,120.858c-11.287,37.181,9.93,76.064,47.112,87.352
					l-2.032,1.262C401.254,197.438,381.092,157.806,393.124,120.858"/>
				<path fill="none" stroke="#DFB1E5" stroke-miterlimit="10" d="M393.124,120.858c-8.004,38.022,16.522,74.908,54.548,82.912
					l-1.917,1.434C407.896,196.438,384.357,158.713,393.124,120.858"/>
				<path fill="none" stroke="#DFB1E5" stroke-miterlimit="10" d="M393.124,120.858c-4.66,38.574,22.989,73.185,61.566,77.843
					l-1.785,1.596C414.43,194.865,387.691,159.334,393.124,120.858"/>
				<path fill="none" stroke="#DFB1E5" stroke-miterlimit="10" d="M393.124,120.858c-1.278,38.834,29.278,70.901,68.116,72.181
					l-1.641,1.744C420.798,192.726,391.064,159.662,393.124,120.858"/>
				<path fill="none" stroke="#DFB1E5" stroke-miterlimit="10" d="M393.124,120.858c2.11,38.798,35.348,68.08,74.149,65.97
					l-1.482,1.881C426.956,190.041,394.455,159.692,393.124,120.858"/>
				<path fill="none" stroke="#DFB1E5" stroke-miterlimit="10" d="M393.124,120.858c5.484,38.468,41.146,64.74,79.615,59.254
					l-1.312,2.005C432.857,186.828,397.834,159.428,393.124,120.858"/>
				<path fill="none" stroke="#DFB1E5" stroke-miterlimit="10" d="M393.124,120.858c8.817,37.843,46.633,60.908,84.479,52.092
					l-1.134,2.107C438.456,183.114,401.178,158.871,393.124,120.858"/>
				<path fill="none" stroke="#DFB1E5" stroke-miterlimit="10" d="M393.124,120.858c12.08,36.931,51.763,56.611,88.696,44.529
					l-0.943,2.199C443.708,178.928,404.461,158.024,393.124,120.858"/>
				<path fill="none" stroke="#DFB1E5" stroke-miterlimit="10" d="M393.124,120.858c15.253,35.736,56.501,51.886,92.239,36.631
					l-0.748,2.273C448.578,174.297,407.656,156.896,393.124,120.858"/>
				<path fill="none" stroke="#DFB1E5" stroke-miterlimit="10" d="M393.124,120.858c18.31,34.271,60.808,46.765,95.081,28.451
					l-0.547,2.33C453.024,169.263,410.742,155.49,393.124,120.858"/>
				<path fill="none" stroke="#DFB1E5" stroke-miterlimit="10" d="M393.124,120.858c21.227,32.545,64.651,41.285,97.2,20.058
					l-0.344,2.367C457.015,163.854,413.693,153.824,393.124,120.858"/>
				<path fill="none" stroke="#DFB1E5" stroke-miterlimit="10" d="M393.124,120.858c23.982,30.572,68.005,35.494,98.577,11.509
					l-0.135,2.39C460.52,158.124,416.487,151.906,393.124,120.858"/>
				<path fill="none" stroke="#DFB1E5" stroke-miterlimit="10" d="M393.124,120.858c26.558,28.363,70.839,29.433,99.206,2.875
					l0.074,2.391C463.511,152.106,419.106,149.752,393.124,120.858"/>
				<path fill="none" stroke="#DFB1E5" stroke-miterlimit="10" d="M393.124,120.858c28.928,25.942,73.135,23.146,99.078-5.782
					l0.282,2.376C465.965,145.854,421.526,147.377,393.124,120.858"/>
				<path fill="none" stroke="#DFB1E5" stroke-miterlimit="10" d="M393.124,120.858c31.079,23.322,74.873,16.685,98.198-14.396
					l0.487,2.342C467.867,139.411,423.729,144.801,393.124,120.858"/>
				<path fill="none" stroke="#DFB1E5" stroke-miterlimit="10" d="M393.124,120.858c32.993,20.525,76.042,10.095,96.57-22.899
					l0.688,2.29C469.201,132.826,425.698,142.041,393.124,120.858"/>
				<path fill="none" stroke="#DFB1E5" stroke-miterlimit="10" d="M393.124,120.858c34.656,17.572,76.634,3.429,94.208-31.229
					l0.885,2.222C469.955,126.149,427.422,139.123,393.124,120.858"/>
				<path fill="none" stroke="#DFB1E5" stroke-miterlimit="10" d="M393.124,120.858c36.058,14.484,76.642-3.264,91.127-39.32
					l1.076,2.135C470.123,119.433,428.881,136.063,393.124,120.858"/>
				<path fill="none" stroke="#DFB1E5" stroke-miterlimit="10" d="M393.124,120.858c37.181,11.287,76.065-9.932,87.353-47.114
					l1.262,2.034C469.706,112.729,430.071,132.89,393.124,120.858"/>
				<path fill="none" stroke="#DFB1E5" stroke-miterlimit="10" d="M393.124,120.858c38.024,8.004,74.909-16.522,82.914-54.547
					l1.431,1.917C468.705,106.083,430.979,129.623,393.124,120.858"/>
				<path fill="none" stroke="#DFB1E5" stroke-miterlimit="10" d="M393.124,120.858c38.577,4.658,73.185-22.989,77.844-61.566
					l1.595,1.784C467.131,99.554,431.6,126.291,393.124,120.858"/>
				<path fill="none" stroke="#DFB1E5" stroke-miterlimit="10" d="M393.124,120.858c38.836,1.279,70.903-29.279,72.182-68.117
					l1.743,1.639C464.992,93.183,431.927,122.917,393.124,120.858"/>
				<path fill="none" stroke="#DFB1E5" stroke-miterlimit="10" d="M393.124,120.858c38.801-2.11,68.081-35.348,65.971-74.148
					l1.88,1.48C462.307,87.025,431.957,119.526,393.124,120.858"/>
				<path fill="none" stroke="#DFB1E5" stroke-miterlimit="10" d="M393.124,120.858c38.468-5.483,64.741-41.146,59.257-79.616
					l2.001,1.311C459.095,81.124,431.694,116.147,393.124,120.858"/>
				<path fill="none" stroke="#DFB1E5" stroke-miterlimit="10" d="M393.124,120.858c37.844-8.816,60.909-46.632,52.093-84.479
					l2.108,1.132C455.381,75.526,431.137,112.806,393.124,120.858"/>
				<path fill="none" stroke="#DFB1E5" stroke-miterlimit="10" d="M393.124,120.858c36.931-12.082,56.612-51.762,44.532-88.697
					l2.197,0.944C451.191,70.273,430.29,109.521,393.124,120.858"/>
				<path fill="none" stroke="#DFB1E5" stroke-miterlimit="10" d="M393.124,120.858c35.737-15.254,51.884-56.5,36.632-92.241
					l2.272,0.749C446.562,65.403,429.161,106.324,393.124,120.858"/>
				<path fill="none" stroke="#DFB1E5" stroke-miterlimit="10" d="M393.124,120.858c34.271-18.311,46.764-60.809,28.454-95.083
					l2.328,0.547C441.527,60.958,427.757,103.239,393.124,120.858"/>
				<path fill="none" stroke="#DFB1E5" stroke-miterlimit="10" d="M393.124,120.858c32.546-21.229,41.287-64.652,20.059-97.2
					L415.551,24C436.121,56.966,426.09,100.288,393.124,120.858"/>
				<path fill="none" stroke="#DFB1E5" stroke-miterlimit="10" d="M393.124,120.858c30.573-23.982,35.495-68.004,11.511-98.578
					l2.39,0.135C430.391,53.463,424.171,97.494,393.124,120.858"/>
				<path fill="none" stroke="#DFB1E5" stroke-miterlimit="10" d="M393.124,120.858c28.364-26.557,29.431-70.839,2.875-99.208
					l2.392-0.074C424.373,50.471,422.016,94.876,393.124,120.858"/>
				<path fill="none" stroke="#DFB1E5" stroke-miterlimit="10" d="M393.124,120.858c25.943-28.927,23.147-73.134-5.783-99.081
					l2.377-0.282C418.12,48.016,419.642,92.457,393.124,120.858"/>
				<path fill="none" stroke="#DFB1E5" stroke-miterlimit="10" d="M393.124,120.858c23.323-31.08,16.683-74.875-14.396-98.198
					l2.342-0.489C411.677,46.114,417.065,90.254,393.124,120.858"/>
				<path fill="none" stroke="#DFB1E5" stroke-miterlimit="10" d="M393.124,120.858c20.526-32.994,10.097-76.042-22.899-96.571
					l2.289-0.689C405.092,44.781,414.307,88.285,393.124,120.858"/>
				<path fill="none" stroke="#DFB1E5" stroke-miterlimit="10" d="M393.124,120.858c17.573-34.657,3.429-76.633-31.228-94.208
					l2.221-0.886C398.415,44.028,411.389,86.561,393.124,120.858"/>
				<path fill="none" stroke="#DFB1E5" stroke-miterlimit="10" d="M393.124,120.858c14.484-36.058-3.265-76.641-39.319-91.126
					l2.135-1.077C391.698,43.86,408.33,85.101,393.124,120.858"/>
			</g>
		</g>
		<g>
			<defs>
				<polygon id="SVGID_4_" points="474.5,167.787 393,214.717 311.5,167.787 311.5,73.929 393,27 474.5,73.929 				"/>
			</defs>
			<clipPath id="SVGID_6_">
				<use xlink:href="#SVGID_4_"  overflow="visible"/>
			</clipPath>
			<polygon display="none" clip-path="url(#SVGID_6_)" fill="none" stroke="#DFB1E5" stroke-miterlimit="10" points="485.5,174.19 
				393,227.383 300.5,174.19 300.5,67.807 393,14.616 485.5,67.807 			"/>
		</g>
		<g>
			<polygon id="SVGID_1_" fill="none" stroke="#DFB1E5" stroke-miterlimit="10" points="474.5,167.787 393,214.717 311.5,167.787 
				311.5,73.929 393,27 474.5,73.929 			"/>
		</g>
	</g>
	<circle fill="none" stroke="#DFB1E5" stroke-miterlimit="10" cx="392.807" cy="120.858" r="15.937"/>
</g>
<g>
	<g>
		<g>
			<defs>
				<polygon id="SVGID_7_" points="-29,156.787 -110.5,203.717 -192,156.787 -192,62.93 -110.5,16 -29,62.93 				"/>
			</defs>
			<clipPath id="SVGID_8_">
				<use xlink:href="#SVGID_7_"  overflow="visible"/>
			</clipPath>
			<g clip-path="url(#SVGID_8_)">
				<path fill="#DFB1E5" d="M-110.876,109.858c11.286-37.183-9.932-76.064-47.115-87.353l2.038-1.261
					C-119.007,33.277-98.845,72.912-110.876,109.858"/>
				<path fill="#DFB1E5" d="M-110.876,109.858c8.003-38.024-16.522-74.91-54.549-82.913l1.918-1.434
					C-125.649,34.278-102.111,72.004-110.876,109.858"/>
				<path fill="#DFB1E5" d="M-110.876,109.858c4.658-38.577-22.989-73.186-61.566-77.844l1.785-1.594
					C-132.182,35.853-105.443,71.383-110.876,109.858"/>
				<path fill="#DFB1E5" d="M-110.876,109.858c1.279-38.835-29.279-70.902-68.118-72.182l1.64-1.744
					C-138.551,37.991-108.817,71.056-110.876,109.858"/>
				<path fill="#DFB1E5" d="M-110.876,109.858c-2.11-38.8-35.348-68.082-74.149-65.97l1.481-1.88
					C-144.708,40.676-112.207,71.024-110.876,109.858"/>
				<path fill="#DFB1E5" d="M-110.876,109.858c-5.484-38.468-41.146-64.741-79.616-59.255l1.312-2.003
					C-150.609,43.889-115.585,71.289-110.876,109.858"/>
				<path fill="#DFB1E5" d="M-110.876,109.858c-8.815-37.843-46.633-60.909-84.478-52.091l1.132-2.109
					C-156.208,47.603-118.932,71.846-110.876,109.858"/>
				<path fill="#DFB1E5" d="M-110.876,109.858c-12.081-36.932-51.764-56.612-88.696-44.53l0.944-2.201
					C-161.46,51.79-122.213,72.693-110.876,109.858"/>
				<path fill="#DFB1E5" d="M-110.876,109.858c-15.253-35.737-56.501-51.886-92.239-36.63l0.746-2.274
					C-166.328,56.42-125.407,73.821-110.876,109.858"/>
				<path fill="#DFB1E5" d="M-110.876,109.858c-18.312-34.272-60.808-46.766-95.08-28.452l0.546-2.33
					C-170.774,61.457-128.494,75.225-110.876,109.858"/>
				<path fill="#DFB1E5" d="M-110.876,109.858c-21.227-32.545-64.652-41.286-97.2-20.059l0.344-2.369
					C-174.767,66.861-131.444,76.893-110.876,109.858"/>
				<path fill="#DFB1E5" d="M-110.876,109.858c-23.984-30.571-68.005-35.494-98.576-11.51l0.134-2.391
					C-178.27,72.593-134.241,78.811-110.876,109.858"/>
				<path fill="#DFB1E5" d="M-110.876,109.858c-26.558-28.366-70.839-29.434-99.205-2.873l-0.075-2.395
					C-181.263,78.609-136.857,80.966-110.876,109.858"/>
				<path fill="#DFB1E5" d="M-110.876,109.858c-28.927-25.942-73.136-23.146-99.078,5.781l-0.284-2.375
					C-183.717,84.862-139.277,83.34-110.876,109.858"/>
				<path fill="#DFB1E5" d="M-110.876,109.858c-31.077-23.323-74.874-16.686-98.197,14.396l-0.489-2.342
					C-185.618,91.307-141.479,85.916-110.876,109.858"/>
				<path fill="#DFB1E5" d="M-110.876,109.858c-32.993-20.525-76.044-10.096-96.569,22.9l-0.69-2.293
					C-186.952,97.892-143.451,88.676-110.876,109.858"/>
				<path fill="#DFB1E5" d="M-110.876,109.858c-34.655-17.572-76.634-3.43-94.205,31.229l-0.888-2.222
					C-187.706,104.565-145.171,91.594-110.876,109.858"/>
				<path fill="#DFB1E5" d="M-110.876,109.858c-36.056-14.484-76.64,3.265-91.126,39.322l-1.077-2.139
					C-187.875,111.283-146.635,94.651-110.876,109.858"/>
				<path fill="#DFB1E5" d="M-110.876,109.858c-37.182-11.287-76.064,9.931-87.353,47.113l-1.259-2.035
					C-187.456,117.987-147.822,97.828-110.876,109.858"/>
				<path fill="#DFB1E5" d="M-110.876,109.858c-38.023-8.004-74.909,16.521-82.913,54.548l-1.433-1.917
					C-186.457,124.633-148.731,101.093-110.876,109.858"/>
				<path fill="#DFB1E5" d="M-110.876,109.858c-38.575-4.658-73.185,22.988-77.844,61.565l-1.593-1.784
					C-184.882,131.162-149.35,104.426-110.876,109.858"/>
				<path fill="#DFB1E5" d="M-110.876,109.858c-38.835-1.278-70.903,29.279-72.182,68.115l-1.743-1.639
					C-182.744,137.531-149.678,107.8-110.876,109.858"/>
				<path fill="#DFB1E5" d="M-110.876,109.858c-38.799,2.109-68.081,35.347-65.968,74.148l-1.882-1.482
					C-180.059,143.69-149.711,111.188-110.876,109.858"/>
				<path fill="#DFB1E5" d="M-110.876,109.858c-38.467,5.482-64.741,41.146-59.256,79.615l-2.002-1.312
					C-176.846,149.592-149.446,114.567-110.876,109.858"/>
				<path fill="#DFB1E5" d="M-110.876,109.858c-37.843,8.815-60.909,46.633-52.091,84.478l-2.11-1.132
					C-173.131,155.188-148.889,117.912-110.876,109.858"/>
				<path fill="#DFB1E5" d="M-110.876,109.858c-36.931,12.08-56.611,51.763-44.531,88.695l-2.199-0.943
					C-168.944,160.442-148.042,121.194-110.876,109.858"/>
				<path fill="#DFB1E5" d="M-110.876,109.858c-35.735,15.252-51.886,56.5-36.63,92.238l-2.274-0.748
					C-164.313,165.312-146.913,124.392-110.876,109.858"/>
				<path fill="#DFB1E5" d="M-110.876,109.858c-34.271,18.311-46.764,60.808-28.451,95.08l-2.331-0.547
					C-159.279,169.758-145.51,127.478-110.876,109.858"/>
				<path fill="#DFB1E5" d="M-110.876,109.858c-32.545,21.228-41.287,64.65-20.058,97.197l-2.369-0.342
					C-153.875,173.749-143.842,130.428-110.876,109.858"/>
				<path fill="#DFB1E5" d="M-110.876,109.858c-30.571,23.982-35.495,68.004-11.509,98.576l-2.389-0.134
					C-148.143,177.254-141.923,133.222-110.876,109.858"/>
				<path fill="#DFB1E5" d="M-110.876,109.858c-28.364,26.556-29.433,70.838-2.875,99.205l-2.392,0.074
					C-142.127,180.245-139.77,135.84-110.876,109.858"/>
				<path fill="#DFB1E5" d="M-110.876,109.858c-25.942,28.928-23.146,73.134,5.783,99.078l-2.376,0.281
					C-135.872,182.7-137.394,138.259-110.876,109.858"/>
				<path fill="#DFB1E5" d="M-110.876,109.858c-23.323,31.076-16.684,74.873,14.396,98.197l-2.34,0.488
					C-129.429,184.601-134.817,140.463-110.876,109.858"/>
				<path fill="#DFB1E5" d="M-110.876,109.858c-20.525,32.992-10.095,76.041,22.901,96.568l-2.293,0.691
					C-122.844,185.935-132.061,142.433-110.876,109.858"/>
				<path fill="#DFB1E5" d="M-110.876,109.858c-17.571,34.654-3.429,76.634,31.229,94.205l-2.222,0.888
					C-116.167,186.688-129.141,144.153-110.876,109.858"/>
				<path fill="#DFB1E5" d="M-110.876,109.858c-14.484,36.056,3.265,76.641,39.321,91.125l-2.137,1.078
					C-109.451,186.854-126.082,145.616-110.876,109.858"/>
				<path fill="#DFB1E5" d="M-110.876,109.858c-11.287,37.181,9.93,76.064,47.112,87.352l-2.032,1.262
					C-102.746,186.438-122.908,146.806-110.876,109.858"/>
				<path fill="#DFB1E5" d="M-110.876,109.858c-8.004,38.022,16.522,74.908,54.548,82.912l-1.917,1.434
					C-96.104,185.438-119.642,147.713-110.876,109.858"/>
				<path fill="#DFB1E5" d="M-110.876,109.858c-4.66,38.574,22.989,73.185,61.566,77.843l-1.785,1.596
					C-89.57,183.865-116.309,148.334-110.876,109.858"/>
				<path fill="#DFB1E5" d="M-110.876,109.858c-1.279,38.834,29.278,70.901,68.116,72.181l-1.64,1.744
					C-83.202,181.726-112.936,148.662-110.876,109.858"/>
				<path fill="#DFB1E5" d="M-110.876,109.858c2.11,38.798,35.348,68.08,74.149,65.97l-1.482,1.881
					C-77.044,179.041-109.545,148.692-110.876,109.858"/>
				<path fill="#DFB1E5" d="M-110.876,109.858c5.484,38.468,41.146,64.74,79.615,59.254l-1.311,2.005
					C-71.143,175.828-106.166,148.428-110.876,109.858"/>
				<path fill="#DFB1E5" d="M-110.876,109.858c8.817,37.843,46.633,60.908,84.479,52.092l-1.133,2.107
					C-65.544,172.114-102.822,147.871-110.876,109.858"/>
				<path fill="#DFB1E5" d="M-110.876,109.858c12.08,36.931,51.763,56.611,88.696,44.529l-0.943,2.199
					C-60.292,167.928-99.539,147.024-110.876,109.858"/>
				<path fill="#DFB1E5" d="M-110.876,109.858c15.253,35.736,56.501,51.886,92.239,36.631l-0.748,2.273
					C-55.422,163.297-96.344,145.896-110.876,109.858"/>
				<path fill="#DFB1E5" d="M-110.876,109.858c18.31,34.271,60.808,46.765,95.081,28.451l-0.547,2.33
					C-50.976,158.263-93.258,144.49-110.876,109.858"/>
				<path fill="#DFB1E5" d="M-110.876,109.858c21.227,32.545,64.651,41.285,97.2,20.058l-0.344,2.367
					C-46.985,152.854-90.307,142.824-110.876,109.858"/>
				<path fill="#DFB1E5" d="M-110.876,109.858c23.982,30.572,68.005,35.494,98.577,11.509l-0.135,2.39
					C-43.481,147.124-87.513,140.906-110.876,109.858"/>
				<path fill="#DFB1E5" d="M-110.876,109.858c26.558,28.363,70.839,29.433,99.206,2.875l0.074,2.391
					C-40.489,141.106-84.894,138.752-110.876,109.858"/>
				<path fill="#DFB1E5" d="M-110.876,109.858c28.928,25.942,73.135,23.146,99.078-5.782l0.282,2.376
					C-38.035,134.854-82.474,136.377-110.876,109.858"/>
				<path fill="#DFB1E5" d="M-110.876,109.858c31.079,23.322,74.873,16.685,98.198-14.396l0.488,2.342
					C-36.133,128.411-80.271,133.801-110.876,109.858"/>
				<path fill="#DFB1E5" d="M-110.876,109.858c32.993,20.525,76.042,10.095,96.57-22.899l0.689,2.29
					C-34.799,121.826-78.302,131.041-110.876,109.858"/>
				<path fill="#DFB1E5" d="M-110.876,109.858c34.656,17.572,76.634,3.429,94.208-31.229l0.885,2.223
					C-34.045,115.149-76.578,128.123-110.876,109.858"/>
				<path fill="#DFB1E5" d="M-110.876,109.858c36.058,14.484,76.642-3.264,91.127-39.32l1.076,2.135
					C-33.877,108.433-75.119,125.063-110.876,109.858"/>
				<path fill="#DFB1E5" d="M-110.876,109.858c37.181,11.287,76.065-9.932,87.353-47.114l1.261,2.035
					C-34.294,101.729-73.929,121.89-110.876,109.858"/>
				<path fill="#DFB1E5" d="M-110.876,109.858c38.024,8.004,74.909-16.522,82.914-54.547l1.431,1.917
					C-35.295,95.083-73.021,118.623-110.876,109.858"/>
				<path fill="#DFB1E5" d="M-110.876,109.858c38.577,4.658,73.185-22.989,77.844-61.566l1.595,1.784
					C-36.869,88.553-72.4,115.291-110.876,109.858"/>
				<path fill="#DFB1E5" d="M-110.876,109.858c38.836,1.279,70.903-29.278,72.182-68.117l1.743,1.639
					C-39.008,82.184-72.073,111.917-110.876,109.858"/>
				<path fill="#DFB1E5" d="M-110.876,109.858c38.801-2.11,68.081-35.348,65.971-74.148l1.88,1.48
					C-41.693,76.025-72.043,108.526-110.876,109.858"/>
				<path fill="#DFB1E5" d="M-110.876,109.858c38.468-5.483,64.741-41.146,59.257-79.616l2.001,1.311
					C-44.905,70.124-72.306,105.147-110.876,109.858"/>
				<path fill="#DFB1E5" d="M-110.876,109.858c37.844-8.816,60.909-46.632,52.093-84.479l2.108,1.132
					C-48.619,64.525-72.863,101.806-110.876,109.858"/>
				<path fill="#DFB1E5" d="M-110.876,109.858c36.931-12.082,56.612-51.762,44.532-88.697l2.197,0.944
					C-52.809,59.273-73.71,98.521-110.876,109.858"/>
				<path fill="#DFB1E5" d="M-110.876,109.858c35.737-15.254,51.884-56.5,36.632-92.241l2.272,0.749
					C-57.438,54.403-74.839,95.324-110.876,109.858"/>
				<path fill="#DFB1E5" d="M-110.876,109.858c34.271-18.311,46.764-60.809,28.454-95.083l2.328,0.547
					C-62.473,49.958-76.243,92.239-110.876,109.858"/>
				<path fill="#DFB1E5" d="M-110.876,109.858c32.546-21.229,41.287-64.652,20.059-97.2L-88.449,13
					C-67.879,45.966-77.91,89.288-110.876,109.858"/>
				<path fill="#DFB1E5" d="M-110.876,109.858c30.573-23.982,35.495-68.004,11.511-98.578l2.389,0.135
					C-73.609,42.463-79.829,86.494-110.876,109.858"/>
				<path fill="#DFB1E5" d="M-110.876,109.858c28.364-26.557,29.431-70.839,2.875-99.208l2.392-0.074
					C-79.627,39.471-81.984,83.877-110.876,109.858"/>
				<path fill="#DFB1E5" d="M-110.876,109.858c25.943-28.927,23.147-73.134-5.783-99.081l2.377-0.282
					C-85.88,37.016-84.358,81.457-110.876,109.858"/>
				<path fill="#DFB1E5" d="M-110.876,109.858c23.323-31.08,16.683-74.875-14.395-98.198l2.341-0.489
					C-92.323,35.114-86.935,79.254-110.876,109.858"/>
				<path fill="#DFB1E5" d="M-110.876,109.858c20.526-32.993,10.097-76.042-22.9-96.571l2.29-0.689
					C-98.908,33.781-89.693,77.285-110.876,109.858"/>
				<path fill="#DFB1E5" d="M-110.876,109.858c17.573-34.657,3.429-76.633-31.228-94.208l2.221-0.886
					C-105.585,33.028-92.611,75.561-110.876,109.858"/>
				<path fill="#DFB1E5" d="M-110.876,109.858c14.484-36.059-3.264-76.641-39.32-91.126l2.136-1.077
					C-112.302,32.86-95.67,74.101-110.876,109.858"/>
			</g>
		</g>
		<g>
			<defs>
				<polygon id="SVGID_9_" points="-29,156.787 -110.5,203.717 -192,156.787 -192,62.93 -110.5,16 -29,62.93 				"/>
			</defs>
			<clipPath id="SVGID_10_">
				<use xlink:href="#SVGID_9_"  overflow="visible"/>
			</clipPath>
			<polygon display="none" clip-path="url(#SVGID_10_)" fill="none" points="-18,163.19 -110.5,216.383 -203,163.19 -203,56.807 
				-110.5,3.616 -18,56.807 			"/>
		</g>
	</g>
	<circle fill="#DFB1E5" cx="-111.193" cy="109.858" r="15.937"/>
</g>
<path fill="#DFB1E5" d="M110.746,76.796l-14.221-8.562l-14.524-8.035l-14.524,8.035l-14.221,8.56l-0.303,16.597l0.303,16.595
	l14.221,8.561l14.524,8.036l14.524-8.036l14.221-8.561l0.302-16.595L110.746,76.796z M84.635,97.369l-7.149,4.17l-0.033-8.273
	l-0.035-8.271l7.183,4.104l7.182,4.103L84.635,97.369z"/>
<g>
	<g>
		<g>
			<polygon id="SVGID_5_" fill="#DFB1E5" points="402,97.787 320.5,144.717 239,97.787 239,3.93 320.5,-43 402,3.93 			"/>
		</g>
		<g>
			<defs>
				<polygon id="SVGID_11_" points="402,97.787 320.5,144.717 239,97.787 239,3.93 320.5,-43 402,3.93 				"/>
			</defs>
			<clipPath id="SVGID_12_">
				<use xlink:href="#SVGID_11_"  overflow="visible"/>
			</clipPath>
			<g clip-path="url(#SVGID_12_)">
				<path fill="#DFB1E5" d="M320.124,50.858c11.286-37.182-9.933-76.064-47.115-87.352l2.038-1.261
					C311.993-25.723,332.154,13.912,320.124,50.858"/>
				<path fill="#DFB1E5" d="M320.124,50.858c8.003-38.024-16.522-74.91-54.549-82.912l1.918-1.434
					C305.352-24.722,328.889,13.004,320.124,50.858"/>
				<path fill="#DFB1E5" d="M320.124,50.858c4.658-38.577-22.989-73.185-61.565-77.844l1.784-1.594
					C298.818-23.147,325.557,12.383,320.124,50.858"/>
				<path fill="#DFB1E5" d="M320.124,50.858c1.278-38.835-29.278-70.902-68.118-72.181l1.641-1.744
					C292.449-21.009,322.184,12.056,320.124,50.858"/>
				<path fill="#DFB1E5" d="M320.124,50.858c-2.11-38.8-35.349-68.081-74.149-65.97l1.481-1.88
					C286.292-18.324,318.793,12.024,320.124,50.858"/>
				<path fill="#DFB1E5" d="M320.124,50.858c-5.483-38.468-41.146-64.741-79.616-59.255l1.312-2.003
					C280.391-15.111,315.415,12.289,320.124,50.858"/>
				<path fill="#DFB1E5" d="M320.124,50.858c-8.815-37.843-46.633-60.909-84.478-52.091l1.131-2.109
					C274.792-11.397,312.068,12.846,320.124,50.858"/>
				<path fill="#DFB1E5" d="M320.124,50.858c-12.081-36.931-51.765-56.612-88.696-44.53l0.944-2.201
					C269.54-7.21,308.787,13.693,320.124,50.858"/>
				<path fill="#DFB1E5" d="M320.124,50.858c-15.253-35.737-56.501-51.886-92.239-36.63l0.746-2.274
					C264.672-2.58,305.593,14.821,320.124,50.858"/>
				<path fill="#DFB1E5" d="M320.124,50.858c-18.312-34.272-60.808-46.765-95.08-28.452l0.546-2.33
					C260.227,2.457,302.506,16.225,320.124,50.858"/>
				<path fill="#DFB1E5" d="M320.124,50.858c-21.228-32.545-64.651-41.286-97.2-20.058l0.344-2.369
					C256.232,7.861,299.557,17.893,320.124,50.858"/>
				<path fill="#DFB1E5" d="M320.124,50.858c-23.983-30.571-68.005-35.494-98.576-11.509l0.134-2.391
					C252.73,13.593,296.759,19.811,320.124,50.858"/>
				<path fill="#DFB1E5" d="M320.124,50.858c-26.558-28.366-70.839-29.433-99.205-2.873l-0.075-2.394
					C249.736,19.609,294.143,21.966,320.124,50.858"/>
				<path fill="#DFB1E5" d="M320.124,50.858c-28.927-25.942-73.136-23.146-99.078,5.782l-0.284-2.375
					C247.283,25.862,291.723,24.34,320.124,50.858"/>
				<path fill="#DFB1E5" d="M320.124,50.858c-31.077-23.323-74.874-16.685-98.197,14.396l-0.489-2.342
					C245.382,32.307,289.521,26.916,320.124,50.858"/>
				<path fill="#DFB1E5" d="M320.124,50.858c-32.993-20.525-76.044-10.095-96.569,22.901l-0.689-2.293
					C244.048,38.891,287.549,29.676,320.124,50.858"/>
				<path fill="#DFB1E5" d="M320.124,50.858c-34.655-17.572-76.634-3.429-94.205,31.229l-0.888-2.222
					C243.294,45.566,285.829,32.594,320.124,50.858"/>
				<path fill="#DFB1E5" d="M320.124,50.858c-36.056-14.484-76.64,3.265-91.126,39.322l-1.077-2.138
					C243.125,52.283,284.365,35.652,320.124,50.858"/>
				<path fill="#DFB1E5" d="M320.124,50.858c-37.183-11.287-76.063,9.931-87.353,47.114l-1.26-2.035
					C243.544,58.988,283.178,38.828,320.124,50.858"/>
				<path fill="#DFB1E5" d="M320.124,50.858c-38.022-8.003-74.909,16.522-82.913,54.548l-1.434-1.917
					C244.543,65.633,282.27,42.093,320.124,50.858"/>
				<path fill="#DFB1E5" d="M320.124,50.858c-38.575-4.658-73.185,22.989-77.845,61.566l-1.592-1.784
					C246.118,72.162,281.65,45.426,320.124,50.858"/>
				<path fill="#DFB1E5" d="M320.124,50.858c-38.835-1.278-70.903,29.279-72.183,68.116l-1.742-1.639
					C248.256,78.531,281.322,48.8,320.124,50.858"/>
				<path fill="#DFB1E5" d="M320.124,50.858c-38.799,2.11-68.081,35.347-65.968,74.149l-1.883-1.482
					C250.941,84.69,281.289,52.189,320.124,50.858"/>
				<path fill="#DFB1E5" d="M320.124,50.858c-38.467,5.483-64.741,41.146-59.256,79.616l-2.002-1.312
					C254.154,90.592,281.555,55.568,320.124,50.858"/>
				<path fill="#DFB1E5" d="M320.124,50.858c-37.843,8.816-60.909,46.633-52.091,84.478l-2.11-1.132
					C257.869,96.188,282.111,58.912,320.124,50.858"/>
				<path fill="#DFB1E5" d="M320.124,50.858c-36.931,12.081-56.61,51.763-44.531,88.696l-2.198-0.943
					C262.057,101.442,282.958,62.195,320.124,50.858"/>
				<path fill="#DFB1E5" d="M320.124,50.858c-35.735,15.253-51.886,56.5-36.63,92.239l-2.273-0.748
					C266.688,106.312,284.087,65.391,320.124,50.858"/>
				<path fill="#DFB1E5" d="M320.124,50.858c-34.271,18.311-46.765,60.808-28.451,95.081l-2.331-0.547
					C271.721,110.758,285.49,68.477,320.124,50.858"/>
				<path fill="#DFB1E5" d="M320.124,50.858c-32.545,21.228-41.287,64.651-20.058,97.198l-2.369-0.342
					C277.125,114.749,287.158,71.428,320.124,50.858"/>
				<path fill="#DFB1E5" d="M320.124,50.858c-30.571,23.983-35.495,68.004-11.509,98.577l-2.389-0.134
					C282.857,118.254,289.077,74.222,320.124,50.858"/>
				<path fill="#DFB1E5" d="M320.124,50.858c-28.364,26.556-29.433,70.838-2.875,99.206l-2.392,0.074
					C288.873,121.245,291.23,76.84,320.124,50.858"/>
				<path fill="#DFB1E5" d="M320.124,50.858c-25.942,28.928-23.146,73.134,5.783,99.079l-2.376,0.281
					C295.128,123.7,293.605,79.259,320.124,50.858"/>
				<path fill="#DFB1E5" d="M320.124,50.858c-23.323,31.077-16.685,74.874,14.396,98.198l-2.34,0.488
					C301.57,125.601,296.184,81.463,320.124,50.858"/>
				<path fill="#DFB1E5" d="M320.124,50.858c-20.524,32.992-10.095,76.042,22.901,96.569l-2.293,0.691
					C308.156,126.935,298.939,83.433,320.124,50.858"/>
				<path fill="#DFB1E5" d="M320.124,50.858c-17.571,34.655-3.429,76.634,31.229,94.206l-2.223,0.888
					C314.833,127.688,301.859,85.154,320.124,50.858"/>
				<path fill="#DFB1E5" d="M320.124,50.858c-14.483,36.056,3.265,76.641,39.321,91.125l-2.137,1.078
					C321.549,127.854,304.918,86.616,320.124,50.858"/>
				<path fill="#DFB1E5" d="M320.124,50.858c-11.287,37.181,9.931,76.065,47.112,87.352l-2.032,1.262
					C328.254,127.438,308.092,87.805,320.124,50.858"/>
				<path fill="#DFB1E5" d="M320.124,50.858c-8.004,38.023,16.522,74.909,54.548,82.913l-1.917,1.434
					C334.896,126.438,311.357,88.713,320.124,50.858"/>
				<path fill="#DFB1E5" d="M320.124,50.858c-4.66,38.575,22.989,73.185,61.565,77.843l-1.785,1.596
					C341.43,124.865,314.691,89.334,320.124,50.858"/>
				<path fill="#DFB1E5" d="M320.124,50.858c-1.278,38.835,29.278,70.902,68.116,72.181l-1.641,1.744
					C347.798,122.726,318.064,89.662,320.124,50.858"/>
				<path fill="#DFB1E5" d="M320.124,50.858c2.11,38.798,35.349,68.081,74.149,65.97l-1.482,1.881
					C353.956,120.041,321.455,89.693,320.124,50.858"/>
				<path fill="#DFB1E5" d="M320.124,50.858c5.483,38.468,41.146,64.741,79.615,59.254l-1.312,2.005
					C359.857,116.828,324.834,89.428,320.124,50.858"/>
				<path fill="#DFB1E5" d="M320.124,50.858c8.817,37.843,46.633,60.909,84.479,52.092l-1.133,2.107
					C365.456,113.114,328.178,88.871,320.124,50.858"/>
				<path fill="#DFB1E5" d="M320.124,50.858c12.08,36.931,51.763,56.612,88.696,44.53l-0.943,2.199
					C370.708,108.929,331.461,88.024,320.124,50.858"/>
				<path fill="#DFB1E5" d="M320.124,50.858c15.253,35.737,56.501,51.886,92.239,36.631l-0.748,2.273
					C375.578,104.297,334.656,86.895,320.124,50.858"/>
				<path fill="#DFB1E5" d="M320.124,50.858c18.31,34.272,60.808,46.765,95.081,28.452l-0.547,2.329
					C380.023,99.263,337.742,85.49,320.124,50.858"/>
				<path fill="#DFB1E5" d="M320.124,50.858c21.228,32.546,64.651,41.286,97.2,20.058l-0.344,2.367
					C384.016,93.855,340.693,83.824,320.124,50.858"/>
				<path fill="#DFB1E5" d="M320.124,50.858c23.981,30.572,68.005,35.494,98.577,11.509l-0.135,2.39
					C387.52,88.124,343.486,81.906,320.124,50.858"/>
				<path fill="#DFB1E5" d="M320.124,50.858c26.558,28.364,70.839,29.433,99.206,2.875l0.074,2.391
					C390.511,82.107,346.105,79.752,320.124,50.858"/>
				<path fill="#DFB1E5" d="M320.124,50.858c28.928,25.943,73.135,23.146,99.078-5.782l0.282,2.376
					C392.965,75.854,348.525,77.377,320.124,50.858"/>
				<path fill="#DFB1E5" d="M320.124,50.858c31.079,23.323,74.873,16.685,98.198-14.396l0.487,2.342
					C394.867,69.411,350.729,74.801,320.124,50.858"/>
				<path fill="#DFB1E5" d="M320.124,50.858c32.993,20.526,76.042,10.095,96.57-22.899l0.688,2.29
					C396.201,62.826,352.698,72.041,320.124,50.858"/>
				<path fill="#DFB1E5" d="M320.124,50.858c34.655,17.572,76.634,3.429,94.208-31.229l0.885,2.223
					C396.955,56.15,354.422,69.123,320.124,50.858"/>
				<path fill="#DFB1E5" d="M320.124,50.858c36.058,14.485,76.642-3.263,91.127-39.32l1.076,2.135
					C397.123,49.433,355.881,66.063,320.124,50.858"/>
				<path fill="#DFB1E5" d="M320.124,50.858c37.181,11.288,76.065-9.931,87.353-47.114l1.262,2.035
					C396.706,42.729,357.07,62.889,320.124,50.858"/>
				<path fill="#DFB1E5" d="M320.124,50.858c38.024,8.004,74.909-16.522,82.914-54.547l1.431,1.917
					C395.705,36.083,357.979,59.623,320.124,50.858"/>
				<path fill="#DFB1E5" d="M320.124,50.858c38.577,4.658,73.185-22.989,77.844-61.566l1.595,1.784
					C394.131,29.553,358.6,56.291,320.124,50.858"/>
				<path fill="#DFB1E5" d="M320.124,50.858c38.836,1.279,70.903-29.278,72.183-68.117l1.742,1.639
					C391.992,23.184,358.927,52.917,320.124,50.858"/>
				<path fill="#DFB1E5" d="M320.124,50.858c38.801-2.11,68.081-35.347,65.972-74.148l1.879,1.48
					C389.307,17.025,358.957,49.527,320.124,50.858"/>
				<path fill="#DFB1E5" d="M320.124,50.858c38.468-5.483,64.741-41.146,59.257-79.616l2.001,1.311
					C386.096,11.124,358.693,46.148,320.124,50.858"/>
				<path fill="#DFB1E5" d="M320.124,50.858c37.844-8.816,60.909-46.632,52.093-84.478l2.108,1.132
					C382.381,5.525,358.137,42.805,320.124,50.858"/>
				<path fill="#DFB1E5" d="M320.124,50.858c36.931-12.081,56.612-51.762,44.532-88.697l2.197,0.944
					C378.191,0.273,357.29,39.521,320.124,50.858"/>
				<path fill="#DFB1E5" d="M320.124,50.858c35.737-15.254,51.884-56.5,36.632-92.241l2.271,0.749
					C373.562-4.597,356.161,36.324,320.124,50.858"/>
				<path fill="#DFB1E5" d="M320.124,50.858c34.271-18.31,46.765-60.808,28.454-95.082l2.328,0.547
					C368.527-9.042,354.757,33.239,320.124,50.858"/>
				<path fill="#DFB1E5" d="M320.124,50.858c32.546-21.228,41.287-64.652,20.06-97.2L342.551-46
					C363.121-13.034,353.09,30.288,320.124,50.858"/>
				<path fill="#DFB1E5" d="M320.124,50.858c30.573-23.982,35.495-68.004,11.511-98.578l2.389,0.135
					C357.391-16.537,351.171,27.494,320.124,50.858"/>
				<path fill="#DFB1E5" d="M320.124,50.858c28.364-26.556,29.431-70.839,2.875-99.207l2.392-0.074
					C351.373-19.529,349.016,24.877,320.124,50.858"/>
				<path fill="#DFB1E5" d="M320.124,50.858c25.942-28.927,23.147-73.134-5.783-99.08l2.377-0.282
					C345.12-21.984,346.643,22.457,320.124,50.858"/>
				<path fill="#DFB1E5" d="M320.124,50.858c23.323-31.079,16.683-74.874-14.396-98.198l2.342-0.489
					C338.677-23.886,344.064,20.254,320.124,50.858"/>
				<path fill="#DFB1E5" d="M320.124,50.858c20.526-32.993,10.097-76.042-22.899-96.571l2.289-0.689
					C332.092-25.219,341.307,18.285,320.124,50.858"/>
				<path fill="#DFB1E5" d="M320.124,50.858c17.573-34.657,3.429-76.633-31.228-94.207l2.221-0.886
					C325.415-25.972,338.389,16.561,320.124,50.858"/>
				<path fill="#DFB1E5" d="M320.124,50.858c14.483-36.058-3.265-76.64-39.319-91.126l2.135-1.077
					C318.698-26.14,335.33,15.101,320.124,50.858"/>
			</g>
		</g>
		<g>
			<defs>
				<polygon id="SVGID_13_" points="402,97.787 320.5,144.717 239,97.787 239,3.93 320.5,-43 402,3.93 				"/>
			</defs>
			<clipPath id="SVGID_14_">
				<use xlink:href="#SVGID_13_"  overflow="visible"/>
			</clipPath>
			<polygon display="none" clip-path="url(#SVGID_14_)" fill="#DFB1E5" points="413,104.19 320.5,157.383 228,104.19 228,-2.193 
				320.5,-55.384 413,-2.193 			"/>
		</g>
	</g>
	<circle fill="#DFB1E5" cx="319.807" cy="50.858" r="15.937"/>
</g>
</svg>
