<?xml version="1.0" encoding="utf-8"?>
<!-- Generator: Adobe Illustrator 16.0.0, SVG Export Plug-In . SVG Version: 6.00 Build 0)  -->
<!DOCTYPE svg PUBLIC "-//W3C//DTD SVG 1.1//EN" "http://www.w3.org/Graphics/SVG/1.1/DTD/svg11.dtd">
<svg version="1.1" id="Layer_1" xmlns="http://www.w3.org/2000/svg" xmlns:xlink="http://www.w3.org/1999/xlink" x="0px" y="0px"
	 width="612px" height="607.277px" viewBox="0 0 612 607.277" enable-background="new 0 0 612 607.277" xml:space="preserve">
<g>
	<path fill="#DFB1E5" d="M430.08,343.59c-0.63,0-1.155-0.523-1.155-1.154v-6.193c0-0.629,0.525-1.154,1.155-1.154h16.166
		c0.629,0,1.154,0.525,1.154,1.154v16.166c0,0.734-0.211,1.365-0.841,1.891c-4.198,3.779-10.183-3.465-8.503-4.828v-5.879h-7.977
		V343.59z"/>
	<path fill="#DFB1E5" d="M321.956,16.176c0.63,0,1.153,0.525,1.153,1.155v6.193c0,0.63-0.523,1.155-1.153,1.155H305.79
		c-0.63,0-1.155-0.525-1.155-1.155V7.358c0-0.735,0.21-1.365,0.84-1.889c4.199-3.779,10.182,3.464,8.608,4.829v5.878H321.956z"/>
	<path fill="#DFB1E5" d="M522.981,315.772c0.42-0.42,1.154-0.42,1.574,0l4.409,4.41c0.419,0.42,0.419,1.154,0,1.574l-11.441,11.441
		c-0.42,0.42-1.155,0.42-1.575,0l-11.442-11.441c-0.523-0.525-0.839-1.154-0.839-1.891c0.314-5.668,9.657-4.828,9.447-2.623
		l4.094,4.094L522.981,315.772z"/>
	<path fill="#DFB1E5" d="M257.502,508.399c0.63,0,1.155,0.525,1.155,1.154v6.193c0,0.631-0.525,1.156-1.155,1.156h-16.166
		c-0.63,0-1.155-0.525-1.155-1.156v-16.166c0-0.734,0.21-1.363,0.84-1.889c4.199-3.779,10.183,3.465,8.503,4.828v5.879H257.502
		L257.502,508.399z"/>
	<path fill="#DFB1E5" d="M515.948,23.734c-0.42,0.42-1.154,0.42-1.574,0l-4.409-4.409c-0.42-0.42-0.42-1.155,0-1.575l11.442-11.442
		c0.42-0.42,1.153-0.42,1.574,0l11.441,11.442c0.525,0.525,0.84,1.155,0.84,1.89c-0.313,5.668-9.656,4.829-9.446,2.625l-4.096-4.094
		L515.948,23.734z"/>
	<path fill="#DFB1E5" d="M220.866,348.629c-0.42,0.42-1.155,0.42-1.575,0l-4.409-4.408c-0.42-0.42-0.42-1.154,0-1.576l11.442-11.439
		c0.42-0.42,1.154-0.42,1.574,0l11.442,11.439c0.525,0.525,0.84,1.156,0.84,1.891c-0.315,5.67-9.658,4.83-9.448,2.625l-4.094-4.094
		L220.866,348.629z"/>
	<path fill="#DFB1E5" d="M508.495,529.186c-0.42,0.42-1.154,0.42-1.574,0l-4.409-4.408c-0.42-0.422-0.42-1.156,0-1.574
		l11.442-11.443c0.42-0.42,1.154-0.42,1.574,0l11.441,11.443c0.525,0.523,0.84,1.152,0.84,1.889
		c-0.313,5.668-9.656,4.828-9.446,2.625l-4.096-4.096L508.495,529.186z"/>
	<path fill="#DFB1E5" d="M607.486,178.676c0,17.531-13.856,22.884-23.726,22.884c-9.656,0-23.619-5.354-23.619-22.884
		c0-6.928,8.714-3.569,8.714,0c0,11.757,11.021,13.437,14.802,13.437c3.778,0,15.326-1.68,15.326-13.437
		C598.983,176.157,607.486,171.958,607.486,178.676z"/>
	<path fill="#DFB1E5" d="M282.591,69.503c-12.387,12.387-25.929,6.403-32.962-0.525c-6.823-6.823-12.912-20.47-0.525-32.857
		c4.934-4.934,8.608,3.674,6.193,6.088c-8.293,8.293-1.68,17.321,0.945,19.945s11.967,9.658,20.365,1.365
		C278.392,61.735,287.314,64.779,282.591,69.503z"/>
	<path fill="#DFB1E5" d="M302.536,189.698c0,17.531-13.856,22.885-23.724,22.885c-9.658,0-23.619-5.354-23.619-22.885
		c0-6.928,8.713-3.569,8.713,0c0,11.757,11.022,13.437,14.801,13.437s15.326-1.68,15.326-13.437
		C294.033,187.179,302.536,182.875,302.536,189.698z"/>
	<path fill="#DFB1E5" d="M165.334,420.958c-3.359-6.824,5.249-9.449,7.348-5.25c3.359,6.51,8.398,14.697,1.365,21.729
		c-5.983,5.984-13.961,5.039-20.05-1.049c-1.784-1.785-5.668-6.404-8.503-13.855c-0.21-0.525,0.105-1.262,0.735-1.471l5.774-2.311
		c0.63-0.209,1.259,0,1.574,0.631c1.155,2.729,3.359,7.559,6.194,10.393c2.309,2.311,5.039,3.568,7.453,1.365
		C169.219,428.831,167.434,425.26,165.334,420.958"/>
	<path fill="#DFB1E5" d="M295.817,387.049c-3.359-6.822,5.249-9.447,7.348-5.248c3.358,6.508,8.397,14.697,1.365,21.73
		c-5.983,5.982-13.961,5.037-20.05-1.051c-1.785-1.785-5.669-6.402-8.503-13.855c-0.21-0.525,0.105-1.26,0.734-1.471l5.774-2.311
		c0.63-0.209,1.26,0,1.575,0.631c1.154,2.729,3.359,7.559,6.193,10.393c2.31,2.311,5.039,3.568,7.453,1.365
		C299.702,394.922,297.917,391.354,295.817,387.049"/>
	<path fill="#DFB1E5" d="M271.358,285.434c-3.359-6.822-7.768-15.324-0.42-21.834c5.669-4.934,14.382-4.305,21.205,2.52
		c4.619,4.619-2.834,9.344-5.774,6.402c-2.834-2.834-6.088-3.674-8.293-2.098c-2.729,1.994-1.574,5.668,0.63,9.762
		c3.359,6.508,8.398,14.697,1.365,21.73c-5.983,5.982-13.961,5.039-20.05-1.051c-1.785-1.785,2.834-9.447,5.668-6.613
		c2.31,2.309,5.039,3.57,7.453,1.365C275.243,293.307,273.458,289.739,271.358,285.434"/>
	<path fill="#DFB1E5" d="M580.822,585.557c2.415-7.139,5.354-16.271,15.222-15.746c7.453,0.42,13.228,7.139,13.228,16.797
		c0,6.508-8.607,4.617-8.607,0.42c0-3.99-1.68-6.93-4.409-7.35c-3.254-0.523-5.039,2.939-6.403,7.35
		c-2.205,6.928-4.408,16.27-14.382,16.27c-8.396,0-13.437-6.297-13.437-14.906c0-2.52,8.713-4.723,8.713-0.629
		c0,3.254,1.05,6.088,4.304,6.299C577.988,593.954,579.248,590.174,580.822,585.557"/>
	<path fill="#DFB1E5" d="M410.765,481.842c2.414-7.139,5.354-16.271,15.222-15.746c7.453,0.42,13.227,7.139,13.227,16.795
		c0,6.51-8.606,4.619-8.606,0.42c0-3.988-1.681-6.928-4.409-7.348c-3.254-0.525-5.039,2.939-6.403,7.348
		c-2.204,6.93-4.409,16.271-14.382,16.271c-8.397,0-13.438-6.297-13.438-14.906c0-2.52,8.714-4.723,8.714-0.629
		c0,3.254,1.05,6.088,4.304,6.299C407.93,490.239,409.189,486.461,410.765,481.842"/>
	<path fill="#DFB1E5" d="M482.882,578.733c3.359,6.822,7.769,15.326,0.42,21.834c-5.669,4.934-14.382,4.305-21.205-2.52
		c-4.618-4.619,2.834-9.342,5.773-6.404c2.835,2.836,6.089,3.676,8.293,2.102c2.729-1.994,1.575-5.668-0.63-9.764
		c-3.359-6.508-8.397-14.695-1.364-21.729c5.983-5.984,13.961-5.039,20.05,1.049c1.785,1.785-2.834,9.447-5.669,6.613
		c-2.309-2.311-5.038-3.568-7.453-1.363C478.998,570.754,480.782,574.428,482.882,578.733"/>
	<path fill="#DFB1E5" d="M362.161,68.453c-7.138-2.415-2.938-10.288,1.47-8.923c6.93,2.205,16.271,4.409,16.271,14.381
		c0,8.398-6.299,13.437-14.907,13.437c-2.519,0-8.503-0.525-15.746-3.779c-0.524-0.21-0.84-0.945-0.524-1.47l2.414-5.773
		c0.315-0.63,0.945-0.84,1.471-0.63c2.729,1.155,7.662,2.939,11.757,2.939c3.255,0,6.089-1.05,6.299-4.304
		C370.561,71.288,366.675,70.028,362.161,68.453"/>
	<path fill="#DFB1E5" d="M90.068,566.241c-0.63,0-1.155-0.525-1.155-1.154v-6.193c0-0.631,0.525-1.154,1.155-1.154h16.166
		c0.63,0,1.155,0.523,1.155,1.154v16.166c0,0.734-0.21,1.365-0.84,1.891c-4.199,3.777-10.183-3.465-8.503-4.828v-5.879h-7.978
		V566.241z"/>
	<path fill="#DFB1E5" d="M30.652,520.788c0.42,0.42,0.42,1.154,0,1.574l-4.409,4.408c-0.42,0.42-1.155,0.42-1.575,0l-11.442-11.441
		c-0.42-0.42-0.42-1.154,0-1.574l11.442-11.443c0.525-0.523,1.155-0.84,1.89-0.84c5.668,0.316,4.829,9.658,2.624,9.449l-4.094,4.094
		L30.652,520.788z"/>
	<path fill="#DFB1E5" d="M126.914,485.622c0,17.529-13.857,22.883-23.724,22.883c-9.658,0-23.62-5.354-23.62-22.883
		c0-6.93,8.713-3.57,8.713,0c0,11.756,11.022,13.436,14.802,13.436c3.779,0,15.326-1.68,15.326-13.436
		C118.411,482.997,126.914,478.797,126.914,485.622z"/>
	<path fill="#DFB1E5" d="M351.979,547.241c0,17.529-13.855,22.885-23.724,22.885c-9.657,0-23.62-5.355-23.62-22.885
		c0-6.93,8.713-3.568,8.713,0c0,11.758,11.021,13.438,14.801,13.438c3.781,0,15.326-1.68,15.326-13.438
		C343.477,544.616,351.979,540.417,351.979,547.241z"/>
	<path fill="#DFB1E5" d="M42.305,592.17c7.138,2.414,2.939,10.287-1.47,8.922c-6.928-2.205-16.271-4.408-16.271-14.381
		c0-8.398,6.298-13.438,14.906-13.438c2.52,0,8.503,0.523,15.746,3.779c0.525,0.209,0.84,0.943,0.525,1.469l-2.414,5.773
		c-0.315,0.631-0.945,0.84-1.47,0.631c-2.729-1.156-7.663-2.939-11.757-2.939c-3.254,0-6.088,1.051-6.298,4.305
		C34.012,589.334,37.791,590.594,42.305,592.17"/>
	<path fill="#DFB1E5" d="M410.555,549.024c7.139,2.414,2.939,10.287-1.47,8.924c-6.929-2.203-16.271-4.408-16.271-14.383
		c0-8.396,6.299-13.436,14.905-13.436c2.521,0,8.503,0.525,15.746,3.779c0.525,0.209,0.84,0.943,0.525,1.469l-2.414,5.773
		c-0.315,0.631-0.945,0.84-1.47,0.631c-2.729-1.156-7.663-2.939-11.759-2.939c-3.254,0-6.088,1.049-6.298,4.303
		C402.156,546.19,406.04,547.452,410.555,549.024"/>
	<path fill="#DFB1E5" d="M169.324,569.286c-3.359-6.824,5.249-9.447,7.348-5.248c3.359,6.508,8.398,14.695,1.364,21.729
		c-5.983,5.982-13.961,5.037-20.05-1.051c-1.785-1.785-5.668-6.402-8.503-13.855c-0.21-0.525,0.105-1.26,0.735-1.471l5.773-2.309
		c0.63-0.211,1.26,0,1.575,0.629c1.155,2.729,3.359,7.559,6.193,10.393c2.31,2.311,5.039,3.568,7.453,1.365
		C173.208,577.159,171.423,573.588,169.324,569.286"/>
	<path fill="#DFB1E5" d="M190.003,514.174c6.823-3.359,9.448,5.248,5.249,7.348c-6.508,3.359-14.696,8.398-21.729,1.365
		c-5.983-5.982-5.039-13.963,1.05-20.051c1.785-1.785,6.403-5.668,13.856-8.502c0.525-0.211,1.26,0.104,1.47,0.734l2.31,5.771
		c0.21,0.631,0,1.26-0.63,1.576c-2.729,1.154-7.558,3.359-10.393,6.193c-2.31,2.309-3.569,5.039-1.365,7.451
		C182.13,518.163,185.7,516.274,190.003,514.174"/>
	<path fill="#DFB1E5" d="M249.419,578.838c7.138,2.414,16.271,5.354,15.746,15.221c-0.42,7.453-7.138,13.229-16.796,13.229
		c-6.508,0-4.619-8.609-0.42-8.609c3.989,0,6.928-1.678,7.348-4.408c0.525-3.254-2.939-5.039-7.348-6.402
		c-6.928-2.205-16.271-4.408-16.271-14.381c0-8.398,6.298-13.438,14.906-13.438c2.52,0,4.724,8.713,0.63,8.713
		c-3.254,0-6.088,1.049-6.298,4.303C241.126,576.004,244.905,577.159,249.419,578.838"/>
	<path fill="#DFB1E5" d="M417.902,218.776c-6.823,3.359-15.326,7.768-21.834,0.42c-4.936-5.669-4.305-14.382,2.519-21.205
		c4.619-4.619,9.343,2.834,6.404,5.774c-2.835,2.834-3.675,6.088-2.101,8.293c1.994,2.729,5.668,1.573,9.764-0.63
		c6.508-3.359,14.695-8.398,21.729-1.365c5.983,5.982,5.038,13.961-1.05,20.051c-1.785,1.783-9.448-2.834-6.613-5.668
		c2.311-2.311,3.568-5.039,1.364-7.453C425.775,214.891,422.206,216.676,417.902,218.776"/>
	<path fill="#DFB1E5" d="M306.84,478.377c2.414-7.139,5.354-16.271,15.221-15.746c7.56,0.42,13.229,7.139,13.229,16.797
		c0,6.508-8.607,4.617-8.607,0.42c0-3.988-1.681-6.93-4.41-7.35c-3.254-0.523-5.037,2.939-6.402,7.35
		c-2.204,6.928-4.408,16.271-14.381,16.271c-8.398,0-13.437-6.299-13.437-14.906c0-2.52,8.713-4.725,8.713-0.631
		c0,3.254,1.05,6.09,4.304,6.299C304.005,486.774,305.265,482.891,306.84,478.377"/>
	<path fill="#DFB1E5" d="M39.47,433.028c2.415-7.139,5.354-16.271,15.221-15.746c7.453,0.42,13.227,7.139,13.227,16.797
		c0,6.508-8.608,4.619-8.608,0.42c0-3.988-1.68-6.928-4.409-7.35c-3.254-0.523-5.039,2.939-6.403,7.35
		c-2.205,6.928-4.409,16.27-14.381,16.27c-8.398,0-13.437-6.299-13.437-14.904c0-2.521,8.713-4.725,8.713-0.631
		c0,3.254,1.05,6.088,4.304,6.299C36.636,441.321,37.896,437.543,39.47,433.028"/>
	<path fill="#DFB1E5" d="M228.529,431.559c-7.138-2.414-16.271-5.354-15.746-15.221c0.42-7.453,7.138-13.227,16.796-13.227
		c6.508,0,4.619,8.605,0.42,8.605c-3.989,0-6.928,1.68-7.348,4.41c-0.525,3.254,2.939,5.039,7.348,6.402
		c6.928,2.205,16.271,4.408,16.271,14.383c0,8.396-6.298,13.436-14.906,13.436c-2.521,0-4.724-8.713-0.63-8.713
		c3.254,0,6.088-1.049,6.298-4.303C236.822,434.393,233.043,433.133,228.529,431.559"/>
	<path fill="#DFB1E5" d="M361.531,305.799c-0.104,0.631-0.734,1.051-1.26,0.945l-6.088-1.049c-0.631-0.105-1.051-0.736-0.945-1.262
		l2.623-15.957c0.105-0.629,0.736-1.049,1.261-0.943l15.956,2.625c0.734,0.104,1.365,0.523,1.785,1.049
		c3.044,4.725-5.039,9.553-6.193,7.664l-5.773-0.945L361.531,305.799z"/>
	<path fill="#DFB1E5" d="M352.084,440.901c-0.63-0.104-1.05-0.734-0.945-1.26l0.945-6.088c0.104-0.631,0.734-1.051,1.26-0.945
		l15.956,2.625c0.63,0.104,1.05,0.734,0.944,1.26l-2.624,15.957c-0.104,0.732-0.524,1.363-1.05,1.783
		c-4.725,3.045-9.553-5.037-7.663-6.193l0.944-5.773L352.084,440.901z"/>
	<path fill="#DFB1E5" d="M347.359,176.682c-0.104,0.63-0.734,1.05-1.26,0.945l-6.088-1.05c-0.631-0.105-1.051-0.735-0.945-1.26
		l2.625-15.956c0.104-0.63,0.733-1.05,1.26-0.945l15.956,2.625c0.733,0.105,1.364,0.525,1.784,1.05
		c3.045,4.724-5.039,9.552-6.193,7.663l-5.773-0.945L347.359,176.682z"/>
	<path fill="#DFB1E5" d="M576.624,431.77c0.104-0.631,0.734-1.051,1.26-0.945l6.088,1.051c0.63,0.104,1.051,0.734,0.945,1.26
		l-2.625,15.955c-0.104,0.631-0.734,1.051-1.26,0.945l-15.956-2.625c-0.734-0.104-1.364-0.523-1.784-1.049
		c-3.044-4.725,5.039-9.555,6.193-7.664l5.772,0.945L576.624,431.77z"/>
	<path fill="#DFB1E5" d="M494.744,144.56c-0.315-0.525-0.21-1.26,0.21-1.575l5.038-3.569c0.524-0.315,1.26-0.21,1.575,0.209
		l9.446,13.122c0.315,0.525,0.21,1.26-0.21,1.575l-13.122,9.447c-0.63,0.42-1.26,0.63-1.994,0.525
		c-5.562-1.155-3.148-10.287-1.05-9.762l4.725-3.464L494.744,144.56z"/>
	<path fill="#DFB1E5" d="M338.122,213.213c17.321,2.834,20.364,17.32,18.79,27.082c-1.574,9.449-9.027,22.465-26.453,19.631
		c-6.929-1.156-2.1-9.133,1.364-8.607c11.651,1.889,15.012-8.715,15.642-12.492c0.631-3.674,0.84-15.432-10.812-17.32
		C334.238,221.086,331.402,212.058,338.122,213.213z"/>
	<path fill="#DFB1E5" d="M581.138,484.362c17.32,2.834,20.365,17.318,18.79,27.082c-1.574,9.447-9.026,22.465-26.453,19.631
		c-6.929-1.154-2.1-9.133,1.364-8.607c11.652,1.889,15.012-8.713,15.643-12.492c0.63-3.674,0.84-15.432-10.812-17.32
		C577.254,492.338,574.419,483.206,581.138,484.362z"/>
	<path fill="#DFB1E5" d="M516.158,203.03c-2.834,17.32-17.32,20.365-27.083,18.791c-9.447-1.574-22.465-9.027-19.63-26.454
		c1.153-6.929,9.133-2.1,8.606,1.364c-1.89,11.652,8.713,15.012,12.492,15.643c3.674,0.629,15.431,0.84,17.32-10.812
		C508.285,199.041,517.312,196.312,516.158,203.03z"/>
	<path fill="#DFB1E5" d="M416.223,409.725c2.835-17.32,17.321-20.365,27.084-18.791c9.447,1.574,22.465,9.027,19.631,26.453
		c-1.154,6.928-9.134,2.102-8.608-1.363c1.89-11.652-8.712-15.012-12.491-15.643c-3.675-0.629-15.432-0.84-17.321,10.812
		C424.096,413.608,415.068,416.338,416.223,409.725z"/>
	<path fill="#DFB1E5" d="M536.629,82.835c2.834-17.321,17.32-20.365,27.083-18.791c9.447,1.575,22.465,9.028,19.63,26.454
		c-1.153,6.928-9.133,2.1-8.606-1.365c1.89-11.652-8.713-15.011-12.492-15.641c-3.674-0.629-15.433-0.839-17.32,10.812
		C544.502,86.719,535.474,89.553,536.629,82.835z"/>
	<path fill="#DFB1E5" d="M569.171,352.303c-10.288-14.275-2.1-26.664,5.878-32.438c7.77-5.562,22.255-9.447,32.542,4.83
		c4.095,5.668-4.934,7.979-7.033,5.039c-6.928-9.555-16.796-4.41-19.84-2.205s-11.441,10.287-4.619,19.84
		C577.568,349.469,573.055,357.762,569.171,352.303z"/>
	<path fill="#DFB1E5" d="M556.783,130.388c-6.718-3.569-1.26-10.707,2.938-8.607c6.51,3.254,15.433,7.033,13.752,16.9
		c-1.364,8.293-8.293,12.282-16.9,10.812c-2.52-0.42-8.293-1.89-15.011-6.298c-0.525-0.315-0.631-1.05-0.315-1.575l3.359-5.249
		c0.314-0.525,1.05-0.735,1.574-0.42c2.52,1.575,7.139,4.199,11.128,4.829c3.148,0.525,6.192,0,6.822-3.254
		C564.552,134.587,561.088,132.697,556.783,130.388"/>
	<path fill="#DFB1E5" d="M514.584,401.432c-3.569,6.717-10.707,1.26-8.608-2.939c3.255-6.508,7.034-15.432,16.901-13.752
		c8.293,1.365,12.282,8.293,10.812,16.9c-0.421,2.521-1.891,8.293-6.3,15.012c-0.313,0.525-1.05,0.631-1.573,0.314l-5.249-3.359
		c-0.524-0.312-0.734-1.049-0.421-1.572c1.574-2.521,4.199-7.141,4.829-11.129c0.524-3.148-0.104-6.193-3.255-6.822
		C518.783,393.663,516.894,397.231,514.584,401.432"/>
	<path fill="#DFB1E5" d="M427.351,274.307c3.568-6.717,10.707-1.26,8.607,2.939c-3.254,6.508-6.928,15.432-16.9,13.752
		c-8.293-1.365-12.281-8.293-10.812-16.902c0.42-2.52,1.89-8.293,6.298-15.01c0.315-0.525,1.05-0.631,1.575-0.316l5.249,3.359
		c0.523,0.314,0.733,1.049,0.42,1.574c-1.575,2.52-4.199,7.139-4.829,11.127c-0.525,3.148,0,6.193,3.254,6.824
		C423.256,282.18,425.041,278.612,427.351,274.307"/>
	<path fill="#DFB1E5" d="M603.077,386.629c3.569-6.717,10.707-1.26,8.607,2.939c-3.255,6.51-6.929,15.432-16.9,13.752
		c-8.293-1.365-12.282-8.293-10.812-16.9c0.42-2.52,1.891-8.293,6.3-15.012c0.313-0.525,1.05-0.629,1.573-0.314l5.249,3.359
		c0.524,0.314,0.734,1.049,0.42,1.574c-1.573,2.52-4.198,7.139-4.829,11.127c-0.523,3.148,0,6.193,3.256,6.822
		C598.878,394.399,600.768,390.829,603.077,386.629"/>
	<path fill="#DFB1E5" d="M169.533,342.645c3.569-6.717,10.708-1.26,8.608,2.939c-3.254,6.51-6.928,15.432-16.901,13.752
		c-8.293-1.365-12.282-8.293-10.812-16.9c0.42-2.52,1.89-8.293,6.298-15.012c0.315-0.523,1.05-0.629,1.575-0.314l5.249,3.359
		c0.525,0.314,0.735,1.049,0.42,1.574c-1.575,2.52-4.199,7.139-4.829,11.127c-0.525,3.15,0,6.193,3.254,6.824
		C165.334,350.415,167.224,346.844,169.533,342.645"/>
	<path fill="#DFB1E5" d="M469.235,40.215c3.567-6.718,10.707-1.26,8.606,2.939c-3.254,6.508-6.928,15.431-16.899,13.751
		c-8.293-1.365-12.282-8.293-10.812-16.901c0.42-2.519,1.89-8.293,6.298-15.011c0.315-0.525,1.05-0.63,1.575-0.315l5.249,3.359
		c0.524,0.315,0.734,1.05,0.419,1.575c-1.574,2.519-4.198,7.138-4.828,11.127c-0.524,3.149,0,6.194,3.254,6.824
		C465.036,47.983,466.926,44.414,469.235,40.215"/>
	<path fill="#DFB1E5" d="M504.506,268.008c-6.718-3.568-1.259-10.707,2.939-8.607c6.509,3.254,15.432,7.033,13.752,16.9
		c-1.364,8.293-8.293,12.283-16.9,10.812c-2.52-0.418-8.293-1.889-15.012-6.193c-0.525-0.314-0.63-1.049-0.315-1.574l3.359-5.248
		c0.315-0.525,1.05-0.734,1.575-0.42c2.52,1.574,7.138,4.199,11.127,4.828c3.148,0.525,6.192,0,6.823-3.254
		C512.274,272.208,508.705,270.319,504.506,268.008"/>
	<path fill="#DFB1E5" d="M581.979,27.408c-7.243,2.205-8.398-6.613-3.989-8.188c6.929-2.31,15.852-5.983,21.625,2.205
		c4.934,6.823,2.729,14.591-4.305,19.63c-1.994,1.47-7.243,4.514-15.012,6.193c-0.63,0.105-1.154-0.314-1.26-0.944l-1.364-6.089
		c-0.104-0.63,0.21-1.26,0.84-1.469c2.834-0.63,7.979-2.1,11.231-4.409c2.625-1.89,4.305-4.409,2.625-7.138
		C590.375,24.784,586.491,26.044,581.979,27.408"/>
	<path fill="#DFB1E5" d="M400.477,134.902c-2.203-7.243,6.613-8.398,8.188-3.989c2.31,6.929,5.983,15.851-2.205,21.625
		c-6.823,4.934-14.591,2.729-19.63-4.304c-1.471-1.994-4.514-7.243-6.193-15.011c-0.104-0.63,0.314-1.155,0.944-1.365l6.089-1.364
		c0.63-0.105,1.26,0.209,1.364,0.839c0.63,2.834,2.1,7.978,4.409,11.232c1.89,2.625,4.408,4.304,7.139,2.625
		C402.996,143.3,401.842,139.521,400.477,134.902"/>
	<path fill="#DFB1E5" d="M459.787,93.962c3.568-6.718,7.873-15.221,17.531-13.122c7.348,1.68,11.86,9.238,10.393,18.686
		c-1.05,6.403-9.238,3.149-8.607-0.945c0.63-3.989-0.524-7.138-3.149-7.978c-3.149-1.05-5.458,1.995-7.558,6.193
		c-3.256,6.509-7.033,15.432-16.901,13.752c-8.293-1.365-12.282-8.293-10.812-16.901c0.421-2.52,9.344-3.254,8.714,0.735
		c-0.524,3.149,0,6.193,3.255,6.823C455.693,101.73,457.479,98.161,459.787,93.962"/>
	<path fill="#DFB1E5" d="M569.065,264.86c-6.72-3.568-15.223-7.873-13.122-17.531c1.68-7.348,9.237-11.861,18.686-10.393
		c6.403,1.051,3.149,9.238-0.944,8.609c-3.988-0.631-7.139,0.523-7.979,3.148c-1.05,3.148,1.995,5.459,6.193,7.559
		c6.509,3.254,15.432,7.033,13.752,16.9c-1.364,8.293-8.293,12.281-16.9,10.812c-2.521-0.42-3.255-9.344,0.734-8.713
		c3.148,0.525,6.192,0,6.822-3.254C576.834,269.059,573.265,267.17,569.065,264.86"/>
	<path fill="#DFB1E5" d="M397.433,31.922c-6.719-3.569-15.222-7.873-13.122-17.53c1.681-7.349,9.238-11.862,18.687-10.393
		c6.403,1.05,3.149,9.238-0.944,8.608c-3.988-0.63-7.139,0.525-7.979,3.149c-1.051,3.149,1.995,5.459,6.192,7.559
		c6.51,3.254,15.433,7.033,13.752,16.9c-1.363,8.293-8.293,12.282-16.9,10.812c-2.519-0.42-3.254-9.343,0.734-8.713
		c3.149,0.525,6.193,0,6.823-3.254C405.201,36.016,401.632,34.127,397.433,31.922"/>
	<path fill="#DFB1E5" d="M350.509,351.569c-7.243,2.203-16.376,5.248-21.624-3.148c-3.988-6.404-1.89-14.908,5.879-20.576
		c5.248-3.779,8.817,4.305,5.459,6.719c-3.255,2.311-4.619,5.459-3.359,7.873c1.47,2.939,5.354,2.414,9.763,0.945
		c6.929-2.311,15.853-5.984,21.625,2.203c4.935,6.824,2.729,14.592-4.306,19.631c-1.993,1.469-8.816-4.305-5.562-6.719
		c2.625-1.891,4.305-4.408,2.625-7.139C358.907,348.944,355.128,350.204,350.509,351.569"/>
	<path fill="#DFB1E5" d="M316.812,120.836c-3.569,6.718-7.873,15.221-17.531,13.017c-7.348-1.68-11.862-9.238-10.393-18.686
		c1.05-6.403,9.238-3.149,8.608,0.945c-0.63,3.989,0.525,7.138,3.149,7.978c3.149,1.05,5.459-1.995,7.558-6.193
		c3.255-6.508,7.033-15.431,16.9-13.751c8.293,1.364,12.283,8.293,10.812,16.901c-0.42,2.519-9.343,3.254-8.713-0.735
		c0.523-3.149,0-6.193-3.255-6.823C320.906,113.067,319.122,116.636,316.812,120.836"/>
	<path fill="#DFB1E5" d="M514.374,465.571c-3.569,6.719-7.873,15.221-17.531,13.121c-7.348-1.68-11.86-9.236-10.392-18.686
		c1.049-6.404,9.236-3.148,8.606,0.945c-0.63,3.986,0.525,7.137,3.149,7.977c3.148,1.051,5.459-1.994,7.558-6.191
		c3.255-6.51,7.033-15.432,16.901-13.752c8.293,1.363,12.282,8.293,10.812,16.9c-0.421,2.52-9.344,3.254-8.714-0.734
		c0.524-3.148,0-6.193-3.255-6.824C518.468,457.803,516.684,461.372,514.374,465.571"/>
	<path fill="#DFB1E5" d="M220.026,268.745c0.315,0.523,0.21,1.26-0.21,1.574l-5.039,3.568c-0.525,0.316-1.26,0.211-1.575-0.209
		l-9.448-13.123c-0.315-0.523-0.21-1.26,0.21-1.574l13.122-9.447c0.63-0.42,1.26-0.631,1.994-0.525
		c5.564,1.154,3.149,10.287,1.05,9.762l-4.724,3.465L220.026,268.745z"/>
	<path fill="#DFB1E5" d="M29.288,282.286c0.105-0.629,0.735-1.049,1.26-0.945l6.089,0.945c0.629,0.105,1.049,0.734,0.944,1.26
		l-2.624,15.957c-0.105,0.629-0.735,1.049-1.26,0.945l-15.851-2.416c-0.735-0.105-1.365-0.525-1.785-1.051
		c-3.044-4.723,5.039-9.553,6.193-7.662l5.774,0.945L29.288,282.286z"/>
	<path fill="#DFB1E5" d="M74.217,83.779c0.315,0.525,0.21,1.26-0.21,1.575l-5.039,3.569c-0.525,0.315-1.26,0.21-1.575-0.21
		l-9.448-13.122c-0.315-0.525-0.21-1.26,0.21-1.575l13.122-9.447c0.63-0.42,1.26-0.63,1.995-0.42
		c5.563,1.154,3.149,10.287,1.05,9.762l-4.724,3.464L74.217,83.779z"/>
	<path fill="#DFB1E5" d="M110.538,395.342c0.315,0.525,0.21,1.26-0.21,1.576l-5.039,3.568c-0.525,0.314-1.26,0.209-1.575-0.211
		l-9.447-13.121c-0.315-0.525-0.21-1.26,0.21-1.574l13.122-9.447c0.63-0.42,1.26-0.631,1.995-0.525
		c5.563,1.154,3.149,10.287,1.05,9.764l-4.724,3.465L110.538,395.342z"/>
	<path fill="#DFB1E5" d="M398.902,602.038c0.313,0.523,0.21,1.26-0.21,1.574l-5.04,3.568c-0.523,0.314-1.26,0.211-1.573-0.211
		l-9.448-13.121c-0.314-0.523-0.21-1.26,0.21-1.574l13.122-9.447c0.63-0.42,1.26-0.629,1.994-0.525
		c5.564,1.156,3.149,10.289,1.05,9.764l-4.724,3.465L398.902,602.038z"/>
	<path fill="#DFB1E5" d="M57.631,11.557C54.797,28.878,40.31,31.922,30.548,30.348C21.1,28.773,8.084,21.32,10.918,3.894
		c1.155-6.928,9.133-2.1,8.608,1.365c-1.89,11.652,8.713,15.116,12.387,15.641c3.674,0.63,15.431,0.84,17.321-10.812
		C49.653,7.568,58.681,4.839,57.631,11.557z"/>
	<path fill="#DFB1E5" d="M12.387,330.469c17.32,2.834,20.365,17.32,18.79,27.082c-1.575,9.449-9.028,22.465-26.454,19.631
		c-6.928-1.154-2.099-9.133,1.365-8.607c11.652,1.891,15.011-8.713,15.641-12.49c0.63-3.676,0.84-15.432-10.812-17.322
		C8.503,338.342,5.668,329.315,12.387,330.469z"/>
	<path fill="#DFB1E5" d="M4.724,222.135c-10.287-14.276-2.099-26.664,5.879-32.438c7.768-5.563,22.254-9.447,32.542,4.829
		c4.094,5.668-4.934,7.978-7.033,5.039c-6.929-9.553-16.796-4.409-19.84-2.205c-3.044,2.205-11.442,10.288-4.619,19.841
		C13.122,219.196,8.713,227.594,4.724,222.135z"/>
	<path fill="#DFB1E5" d="M131.008,306.536c-10.288-14.277-2.205-26.664,5.878-32.439c7.768-5.562,22.255-9.447,32.542,4.83
		c4.094,5.668-4.934,7.979-7.034,5.039c-6.928-9.553-16.796-4.41-19.84-2.205c-3.044,2.205-11.442,10.287-4.619,19.84
		C139.406,303.702,134.892,312.098,131.008,306.536z"/>
	<path fill="#DFB1E5" d="M154.522,111.808c-10.287-14.276-2.099-26.664,5.879-32.437c7.768-5.564,22.254-9.448,32.542,4.829
		c4.094,5.668-4.934,7.978-7.033,5.039c-6.929-9.553-16.796-4.409-19.84-2.205c-3.044,2.204-11.442,10.288-4.619,19.84
		C162.92,108.868,158.406,117.266,154.522,111.808z"/>
	<path fill="#DFB1E5" d="M124.08,24.259c3.569-6.718,10.708-1.26,8.608,2.939c-3.254,6.508-6.928,15.431-16.901,13.751
		c-8.293-1.365-12.282-8.293-10.812-16.901c0.42-2.519,1.89-8.293,6.299-15.011c0.315-0.525,1.049-0.63,1.574-0.315l5.249,3.359
		c0.525,0.315,0.735,1.05,0.42,1.575c-1.575,2.519-4.199,7.138-4.829,11.127c-0.525,3.149,0,6.194,3.254,6.824
		C119.881,32.027,121.77,28.458,124.08,24.259"/>
	<path fill="#DFB1E5" d="M86.813,321.756c3.569-6.719,10.708-1.26,8.608,2.939c-3.254,6.508-6.928,15.432-16.901,13.752
		c-8.293-1.365-12.282-8.293-10.812-16.902c0.42-2.52,1.89-8.293,6.193-15.01c0.315-0.525,1.05-0.631,1.575-0.316l5.249,3.359
		c0.525,0.314,0.735,1.051,0.42,1.574c-1.575,2.52-4.199,7.139-4.829,11.129c-0.525,3.146,0,6.191,3.254,6.822
		C82.72,329.524,84.504,325.956,86.813,321.756"/>
	<path fill="#DFB1E5" d="M102.14,145.504c-7.243,2.204-8.398-6.614-3.989-8.188c6.928-2.31,15.851-5.984,21.625,2.204
		c4.934,6.823,2.729,14.592-4.304,19.63c-1.995,1.47-7.243,4.514-15.011,6.193c-0.63,0.105-1.155-0.315-1.365-0.945l-1.365-6.088
		c-0.105-0.63,0.21-1.26,0.84-1.47c2.834-0.63,7.978-2.099,11.232-4.409c2.624-1.89,4.304-4.409,2.624-7.138
		C110.643,142.985,106.759,144.14,102.14,145.504"/>
	<path fill="#DFB1E5" d="M211.208,148.863c-7.243,2.205-8.398-6.613-3.989-8.188c6.928-2.309,15.851-5.983,21.625,2.205
		c4.934,6.823,2.729,14.591-4.304,19.63c-1.995,1.469-7.243,4.514-15.011,6.193c-0.63,0.105-1.155-0.315-1.365-0.945l-1.365-6.088
		c-0.105-0.63,0.21-1.26,0.84-1.47c2.834-0.63,7.978-2.1,11.232-4.409c2.625-1.89,4.304-4.409,2.625-7.139
		C219.711,146.344,215.827,147.499,211.208,148.863"/>
	<path fill="#DFB1E5" d="M188.954,13.447c3.569-6.718,7.873-15.221,17.531-13.122c7.348,1.68,11.862,9.238,10.393,18.686
		c-1.05,6.403-9.238,3.149-8.608-0.945c0.63-3.989-0.525-7.138-3.149-7.978c-3.149-1.05-5.458,1.995-7.558,6.193
		c-3.254,6.508-7.033,15.431-16.901,13.752c-8.293-1.365-12.282-8.293-10.812-16.901c0.42-2.52,9.343-3.254,8.713,0.735
		c-0.525,3.149,0,6.193,3.254,6.823C184.755,21.215,186.644,17.646,188.954,13.447"/>
	<path fill="#DFB1E5" d="M28.343,129.024c-6.719-3.569-15.222-7.873-13.017-17.531c1.68-7.348,9.238-11.862,18.686-10.393
		c6.403,1.05,3.149,9.238-0.945,8.608c-3.989-0.63-7.138,0.525-7.978,3.149c-1.05,3.149,1.995,5.458,6.193,7.558
		c6.508,3.254,15.431,7.033,13.752,16.901c-1.365,8.293-8.293,12.282-16.901,10.812c-2.52-0.42-3.254-9.342,0.735-8.713
		c3.149,0.525,6.193,0,6.823-3.254C36.111,133.117,32.542,131.333,28.343,129.024"/>
	<path fill="#DFB1E5" d="M169.219,209.119c-6.719-3.569-15.222-7.873-13.122-17.531c1.68-7.348,9.238-11.862,18.686-10.393
		c6.403,1.05,3.149,9.238-0.945,8.608c-3.989-0.63-7.138,0.525-7.978,3.149c-1.05,3.149,1.995,5.458,6.193,7.558
		c6.508,3.254,15.431,7.033,13.752,16.901c-1.365,8.293-8.293,12.283-16.901,10.812c-2.52-0.42-3.254-9.344,0.734-8.713
		c3.149,0.525,6.194,0,6.824-3.254C176.987,213.213,173.417,211.428,169.219,209.119"/>
	<path fill="#DFB1E5" d="M97.836,235.993c-3.569,6.717-7.873,15.221-17.531,13.121c-7.348-1.68-11.862-9.238-10.392-18.686
		c1.049-6.402,9.237-3.148,8.607,0.945c-0.629,3.988,0.525,7.137,3.149,7.977c3.149,1.051,5.458-1.992,7.558-6.191
		c3.254-6.508,7.033-15.432,16.901-13.752c8.293,1.365,12.282,8.293,10.812,16.9c-0.42,2.52-9.343,3.254-8.713-0.734
		c0.525-3.148,0-6.193-3.254-6.822C102.035,228.12,100.146,231.688,97.836,235.993"/>
</g>
</svg>
