<?xml version="1.0" encoding="UTF-8" standalone="no"?>
<svg width="364px" height="334px" viewBox="0 0 364 334" version="1.1" xmlns="http://www.w3.org/2000/svg" xmlns:xlink="http://www.w3.org/1999/xlink" xmlns:sketch="http://www.bohemiancoding.com/sketch/ns">
    <!-- Generator: Sketch 3.2.1 (9971) - http://www.bohemiancoding.com/sketch -->
    <title>Artboard 1</title>
    <desc>Created with Sketch.</desc>
    <defs></defs>
    <g id="Page-1" stroke="none" stroke-width="1" fill="none" fill-rule="evenodd" sketch:type="MSPage">
        <g id="Artboard-1" sketch:type="MSArtboardGroup" fill="#333030">
            <path d="M363.663424,283 L363.663424,322.870382 C363.663424,331.151895 358.05349,334.16186 351.141443,329.598712 L145.185405,193.632064 C138.269706,189.066505 138.273358,181.66186 145.185405,177.098712 L351.141443,41.1320641 C358.057142,36.5665051 363.663424,39.5732212 363.663424,47.8603949 L363.663424,119.409963 L363.663424,119.409963 L276.279155,177.098712 C269.367108,181.66186 269.363456,189.066505 276.279155,193.632064 L320,222.495393 L320,196 L348.996128,196 C357.282538,196 364,202.718277 364,211.005348 L364,283 L363.663424,283 Z M230.108197,117.487061 L156.629832,6.18540498 C152.066684,-0.726642168 144.662039,-0.730294243 140.09648,6.18540498 L4.12983165,212.141443 C-0.433316363,219.05349 2.57664894,224.663424 10.8581624,224.663424 L82.407731,224.663424 L140.09648,137.279155 C144.662039,130.363456 152.066684,130.367108 156.629832,137.279155 L169.833193,157.279001 L230.108197,117.487061 L230.108197,117.487061 Z" id="Triangle-7" sketch:type="MSShapeGroup"></path>
        </g>
    </g>
</svg>